<?xml version="1.0" standalone="no"?>
<!DOCTYPE svg PUBLIC "-//W3C//DTD SVG 20010904//EN"
 "http://www.w3.org/TR/2001/REC-SVG-20010904/DTD/svg10.dtd">
<svg version="1.0" xmlns="http://www.w3.org/2000/svg"
 width="800.000000pt" height="451.000000pt" viewBox="0 0 800.000000 451.000000"
 preserveAspectRatio="xMidYMid meet">

<g transform="translate(0.000000,451.000000) scale(0.100000,-0.100000)"
fill="#000000" stroke="none">
<path d="M1496 4149 c-284 -31 -518 -164 -607 -345 -31 -62 -34 -77 -34 -154
0 -75 4 -93 31 -150 40 -83 89 -139 176 -200 120 -84 286 -140 461 -155 l77
-7 0 -134 c0 -74 -3 -134 -6 -134 -3 0 -14 5 -25 11 -18 9 -18 6 6 -40 14 -28
25 -53 25 -56 0 -3 -169 -5 -375 -5 l-375 0 0 -380 0 -380 375 0 375 0 0 -200
c0 -110 -3 -200 -6 -200 -3 0 -14 5 -25 11 -18 9 -18 6 6 -40 14 -28 25 -53
25 -56 0 -3 -112 -5 -249 -5 l-249 0 -123 -367 c-67 -203 -124 -374 -127 -381
-3 -10 124 -12 629 -10 l633 3 60 182 61 183 453 0 c444 0 453 0 442 -19 -17
-33 -12 -34 34 -7 25 14 51 26 58 26 7 0 126 -113 263 -250 l250 -250 250 250
250 250 453 0 c444 0 453 0 442 -19 -17 -32 -12 -33 37 -7 26 14 48 24 50 23
1 -2 -24 -84 -57 -182 -33 -99 -60 -181 -60 -182 0 -2 284 -2 632 -1 l631 3
124 370 c67 203 123 373 123 377 0 5 -175 8 -390 8 l-390 0 0 185 c0 181 1
185 19 175 11 -5 22 -10 25 -10 7 0 -15 51 -35 81 l-16 24 -27 -53 c-28 -54
-27 -59 5 -42 18 10 19 6 19 -175 l0 -185 -234 0 -235 0 -62 -189 -63 -189
-48 24 c-57 29 -62 30 -48 4 11 -20 8 -20 -447 -20 l-458 0 -235 235 -235 235
3 210 c3 203 3 210 22 200 31 -17 31 -12 5 40 -14 27 -25 52 -25 55 0 2 135 6
300 7 l301 3 62 185 62 185 328 3 c180 1 327 0 327 -4 0 -3 -5 -14 -10 -25
-14 -24 -3 -24 38 1 49 30 59 26 64 -25 20 -169 215 -340 469 -411 126 -34
332 -44 465 -20 256 44 456 173 537 344 28 58 32 77 31 147 0 111 -38 192
-132 284 -241 237 -737 291 -1077 118 -168 -84 -295 -241 -295 -362 0 -19 -2
-35 -5 -35 -3 0 -28 11 -55 25 -52 27 -57 26 -40 -6 10 -19 4 -19 -314 -19
l-325 0 13 43 c7 23 34 104 59 180 26 76 47 142 47 147 0 6 -229 10 -628 10
l-628 0 -125 -372 c-68 -205 -125 -379 -127 -385 -3 -10 66 -13 322 -13 179 0
326 -2 326 -5 0 -3 -11 -28 -25 -55 -27 -52 -26 -57 6 -40 18 10 19 5 19 -178
l0 -188 -262 -261 -262 -261 -48 24 c-57 29 -62 30 -48 4 11 -20 8 -20 -439
-20 l-450 0 60 177 c32 98 59 181 59 185 0 4 -169 8 -375 8 l-375 0 25 50 c30
59 31 64 6 50 -11 -5 -22 -10 -25 -10 -3 0 -6 90 -6 200 l0 200 375 0 375 0 0
380 0 380 -375 0 -375 0 25 50 c30 59 31 64 6 50 -11 -5 -22 -10 -25 -10 -3 0
-6 60 -6 134 l0 134 78 7 c122 10 267 50 371 101 116 57 222 156 267 249 26
53 29 70 29 155 0 84 -4 102 -29 155 -112 230 -481 383 -830 344z m301 -24
c107 -20 211 -57 292 -102 87 -48 189 -151 227 -228 25 -52 29 -71 29 -145 0
-71 -4 -94 -26 -140 -68 -143 -213 -251 -424 -317 -85 -26 -100 -27 -285 -27
-227 0 -293 13 -447 89 -155 76 -256 187 -289 314 -62 245 173 490 535 555
103 19 291 19 388 1z m4309 -1115 c273 -34 492 -159 580 -331 36 -70 45 -191
20 -265 -33 -98 -139 -211 -258 -274 -401 -214 -1011 -95 -1170 228 -30 60
-33 75 -33 157 0 79 4 97 29 150 112 230 481 379 832 335z m-1629 -482 c-66
-200 -122 -365 -123 -367 -8 -9 -1234 -6 -1234 4 0 8 210 645 235 713 3 9 137
12 624 12 l619 0 -121 -362z m-2127 -128 l0 -370 -745 0 -745 0 0 370 0 370
745 0 745 0 0 -370z m1628 -1497 l-248 -248 -245 245 -245 245 247 247 248
248 245 -245 245 -245 -247 -247z m-1752 250 l-123 -368 -616 -3 c-340 -1
-617 1 -617 5 0 5 54 171 121 370 l121 363 618 0 618 0 -122 -367z m4250 0
l-123 -368 -616 -3 c-340 -1 -617 1 -617 5 0 5 54 171 121 370 l121 363 618 0
618 0 -122 -367z"/>
<path d="M1539 3688 c-4 -39 9 -88 23 -88 9 0 9 3 0 12 -14 14 -16 55 -3 60 5
2 3 9 -5 16 -11 10 -14 10 -15 0z"/>
<path d="M1720 3692 c0 -7 -11 -12 -25 -12 -23 0 -25 -3 -23 -42 l1 -43 4 38
c3 29 9 37 24 37 15 0 19 -7 19 -35 0 -19 3 -35 8 -35 8 0 7 88 -2 97 -3 4 -6
1 -6 -5z"/>
<path d="M1466 3665 c-4 -10 3 -20 19 -27 34 -15 32 -32 -2 -23 -21 5 -25 4
-17 -5 7 -7 20 -10 30 -8 27 5 30 35 5 43 -27 8 -27 29 -1 22 11 -3 18 -1 14
4 -9 15 -41 10 -48 -6z"/>
<path d="M1586 3671 c-3 -4 6 -6 19 -3 33 6 32 -14 -1 -22 -36 -9 -28 -41 11
-43 29 -1 30 0 27 38 -4 33 -8 39 -27 39 -13 0 -26 -4 -29 -9z m44 -41 c0 -13
-28 -25 -38 -16 -3 4 0 11 8 16 20 13 30 12 30 0z"/>
<path d="M6080 2562 c0 -13 -7 -18 -22 -18 -20 1 -23 -4 -23 -34 0 -31 3 -35
28 -36 26 -1 27 1 27 52 0 30 -2 54 -5 54 -3 0 -5 -8 -5 -18z m-5 -52 c0 -16
-6 -26 -17 -28 -14 -3 -18 3 -18 28 0 25 4 31 18 28 11 -2 17 -12 17 -28z"/>
<path d="M5872 2541 c-20 -12 -11 -65 12 -69 10 -2 22 0 27 5 6 6 1 9 -12 9
-12 -1 -24 5 -26 12 -3 8 6 12 26 12 33 0 39 8 19 28 -14 14 -28 15 -46 3z
m43 -11 c4 -6 -5 -10 -20 -10 -15 0 -24 4 -20 10 3 6 12 10 20 10 8 0 17 -4
20 -10z"/>
<path d="M5953 2510 c0 -25 2 -35 4 -22 2 12 2 32 0 45 -2 12 -4 2 -4 -23z"/>
<path d="M5983 2539 c10 -6 17 -23 18 -42 1 -18 3 -24 6 -14 8 30 -6 67 -25
67 -16 -1 -16 -1 1 -11z"/>
<path d="M4108 2583 c6 -2 10 -9 6 -14 -3 -5 0 -9 5 -9 6 0 11 7 11 15 0 8 -8
15 -17 14 -11 0 -13 -3 -5 -6z"/>
<path d="M3693 2525 c0 -33 2 -45 4 -27 2 18 2 45 0 60 -2 15 -4 0 -4 -33z"/>
<path d="M3940 2572 c0 -5 7 -9 15 -9 8 0 12 4 9 9 -3 4 -9 8 -15 8 -5 0 -9
-4 -9 -8z"/>
<path d="M4053 2525 c0 -33 2 -45 4 -27 2 18 2 45 0 60 -2 15 -4 0 -4 -33z"/>
<path d="M3561 2506 l2 -41 6 35 c8 48 38 54 44 8 l4 -33 -1 35 c-1 31 -4 35
-28 36 -26 1 -28 -1 -27 -40z"/>
<path d="M3726 2542 c-3 -5 6 -7 19 -4 33 6 32 -14 -1 -22 -35 -9 -29 -41 9
-42 26 -1 28 1 25 35 -2 28 -8 37 -25 39 -11 2 -24 -1 -27 -6z m44 -42 c0 -12
-28 -25 -36 -17 -9 9 6 27 22 27 8 0 14 -5 14 -10z"/>
<path d="M3847 2543 c-13 -12 -7 -23 18 -35 33 -15 32 -32 -1 -25 -16 3 -22 1
-16 -5 15 -15 46 -5 50 14 2 12 -5 19 -22 24 -33 8 -34 28 -1 22 13 -3 22 -1
19 3 -6 11 -38 12 -47 2z"/>
<path d="M3924 2536 c-3 -8 -4 -25 -2 -38 2 -17 9 -23 28 -23 15 0 25 6 26 15
1 10 -1 10 -3 2 -7 -21 -38 -9 -41 16 -4 26 25 42 40 21 8 -12 9 -11 5 1 -5
20 -46 25 -53 6z"/>
<path d="M4084 2536 c-16 -41 20 -86 47 -59 6 6 1 9 -12 9 -12 -1 -24 5 -26
12 -3 7 5 12 22 12 20 0 26 4 23 18 -4 22 -46 29 -54 8z m46 -6 c0 -5 -9 -10
-20 -10 -11 0 -20 5 -20 10 0 6 9 10 20 10 11 0 20 -4 20 -10z"/>
<path d="M1588 2440 c-5 -17 3 -90 11 -90 3 0 5 21 4 46 -1 46 -8 65 -15 44z"/>
<path d="M1473 2390 c0 -25 2 -35 4 -22 2 12 2 32 0 45 -2 12 -4 2 -4 -23z"/>
<path d="M1513 2390 c0 -25 2 -35 4 -22 2 12 2 32 0 45 -2 12 -4 2 -4 -23z"/>
<path d="M1539 2421 c8 -5 16 -22 19 -38 4 -37 12 -43 12 -10 0 37 -10 57 -29
57 -13 0 -14 -2 -2 -9z"/>
<path d="M1671 2386 l2 -41 6 35 c8 48 38 54 44 8 l4 -33 -1 35 c-1 31 -4 35
-28 36 -26 1 -28 -1 -27 -40z"/>
<path d="M3504 1196 c-8 -22 3 -49 19 -43 6 2 12 14 12 27 0 27 -22 39 -31 16z
m26 -16 c0 -11 -4 -20 -10 -20 -5 0 -10 9 -10 20 0 11 5 20 10 20 6 0 10 -9
10 -20z"/>
<path d="M3635 1200 c-4 -6 -4 -14 -1 -17 3 -4 6 -1 6 5 0 7 9 12 20 12 28 0
26 -31 -5 -60 -33 -31 -32 -40 8 -39 31 2 31 2 4 6 l-28 4 26 25 c32 29 31 67
-2 72 -11 2 -24 -2 -28 -8z"/>
<path d="M3902 1198 c-17 -17 -15 -73 3 -88 17 -14 45 -7 45 12 0 10 -3 9 -9
-1 -16 -25 -41 -4 -41 34 0 39 25 59 42 34 8 -12 9 -11 5 1 -5 19 -29 24 -45
8z"/>
<path d="M3979 1193 c-13 -15 -12 -15 8 -2 18 10 25 11 35 1 9 -9 8 -16 -5
-30 -9 -10 -17 -25 -17 -33 0 -8 10 1 21 19 12 18 18 39 15 47 -7 20 -40 19
-57 -2z"/>
<path d="M3423 1140 c0 -25 2 -35 4 -22 2 12 2 32 0 45 -2 12 -4 2 -4 -23z"/>
<path d="M3452 1168 c9 -7 19 -26 21 -43 3 -21 4 -18 3 10 -1 31 -5 41 -21 43
-18 4 -19 3 -3 -10z"/>
<path d="M3733 1173 c9 -2 25 -2 35 0 9 3 1 5 -18 5 -19 0 -27 -2 -17 -5z"/>
<path d="M3818 1173 c12 -2 30 -2 40 0 9 3 -1 5 -23 4 -22 0 -30 -2 -17 -4z"/>
<path d="M3951 1154 c0 -11 3 -14 6 -6 3 7 2 16 -1 19 -3 4 -6 -2 -5 -13z"/>
<path d="M3574 1146 c-8 -22 3 -49 19 -43 6 2 12 14 12 27 0 27 -22 39 -31 16z
m26 -16 c0 -11 -4 -20 -10 -20 -5 0 -10 9 -10 20 0 11 5 20 10 20 6 0 10 -9
10 -20z"/>
<path d="M3733 1133 c9 -2 25 -2 35 0 9 3 1 5 -18 5 -19 0 -27 -2 -17 -5z"/>
<path d="M3818 1133 c12 -2 30 -2 40 0 9 3 -1 5 -23 4 -22 0 -30 -2 -17 -4z"/>
<path d="M1473 1155 c0 -33 2 -45 4 -27 2 18 2 45 0 60 -2 15 -4 0 -4 -33z"/>
<path d="M1570 1202 c0 -5 7 -9 15 -9 8 0 12 4 9 9 -3 4 -9 8 -15 8 -5 0 -9
-4 -9 -8z"/>
<path d="M1381 1136 l2 -41 6 35 c8 48 38 54 44 8 l4 -33 -1 35 c-1 31 -4 35
-28 36 -26 1 -28 -1 -27 -40z"/>
<path d="M1502 1168 c9 -7 19 -26 21 -43 3 -21 4 -18 3 10 -1 31 -5 41 -21 43
-18 4 -19 3 -3 -10z"/>
<path d="M1556 1172 c-3 -5 6 -7 19 -4 33 6 32 -14 -1 -22 -35 -9 -29 -41 9
-42 26 -1 28 1 25 35 -2 28 -8 37 -25 39 -11 2 -24 -1 -27 -6z m44 -42 c0 -12
-28 -25 -36 -17 -9 9 6 27 22 27 8 0 14 -5 14 -10z"/>
<path d="M1631 1121 c1 -32 4 -48 7 -36 4 11 16 20 26 20 51 0 43 69 -8 71
-25 1 -26 -1 -25 -55z m54 19 c0 -16 -6 -26 -18 -28 -19 -4 -32 20 -23 44 9
25 41 13 41 -16z"/>
<path d="M1763 1140 c0 -25 2 -35 4 -22 2 12 2 32 0 45 -2 12 -4 2 -4 -23z"/>
<path d="M1792 1168 c9 -7 19 -26 21 -43 3 -21 4 -18 3 10 -1 31 -5 41 -21 43
-18 4 -19 3 -3 -10z"/>
<path d="M5850 1229 c0 -5 5 -7 10 -4 6 3 10 8 10 11 0 2 -4 4 -10 4 -5 0 -10
-5 -10 -11z"/>
<path d="M6116 1232 c-2 -4 7 -8 20 -8 13 -1 24 1 24 5 0 9 -38 12 -44 3z"/>
<path d="M5583 1155 c0 -33 2 -45 4 -27 2 18 2 45 0 60 -2 15 -4 0 -4 -33z"/>
<path d="M5635 1200 c3 -5 8 -10 11 -10 2 0 4 5 4 10 0 6 -5 10 -11 10 -5 0
-7 -4 -4 -10z"/>
<path d="M5836 1202 c-2 -4 4 -8 14 -8 10 0 16 4 14 8 -3 4 -9 8 -14 8 -5 0
-11 -4 -14 -8z"/>
<path d="M6023 1155 c0 -33 2 -45 4 -27 2 18 2 45 0 60 -2 15 -4 0 -4 -33z"/>
<path d="M6118 1198 c5 -5 16 -8 23 -6 8 3 3 7 -10 11 -17 4 -21 3 -13 -5z"/>
<path d="M5463 1140 c0 -25 2 -35 4 -22 2 12 2 32 0 45 -2 12 -4 2 -4 -23z"/>
<path d="M5492 1168 c9 -7 19 -26 21 -43 3 -21 4 -18 3 10 -1 31 -5 41 -21 43
-18 4 -19 3 -3 -10z"/>
<path d="M5625 1171 c-3 -7 0 -8 9 -5 32 12 38 -9 6 -22 -39 -17 -35 -39 9
-40 31 -1 32 0 29 35 -2 28 -8 37 -25 39 -11 2 -24 -2 -28 -7z m45 -40 c0 -15
-19 -23 -38 -16 -14 5 -14 7 -2 15 19 12 40 13 40 1z"/>
<path d="M5747 1173 c-14 -14 -6 -31 18 -37 33 -8 33 -30 -1 -23 -16 3 -22 1
-16 -5 15 -15 46 -5 50 14 2 12 -5 19 -22 24 -14 3 -26 11 -26 16 0 6 9 8 20
5 11 -3 20 -1 20 4 0 10 -33 12 -43 2z"/>
<path d="M5820 1161 c-15 -29 4 -63 33 -59 18 2 22 10 22 38 0 28 -4 36 -22
38 -14 2 -26 -4 -33 -17z m45 -21 c0 -15 -6 -26 -16 -28 -19 -3 -31 21 -22 43
9 25 38 13 38 -15z"/>
<path d="M5944 1166 c-16 -41 20 -86 47 -59 6 6 1 9 -13 9 -18 -1 -23 4 -23
24 0 19 5 25 22 24 12 0 20 3 17 8 -8 13 -44 9 -50 -6z"/>
<path d="M6052 1168 c9 -7 19 -26 21 -43 3 -21 4 -18 3 10 -1 31 -5 41 -21 43
-18 4 -19 3 -3 -10z"/>
<path d="M6106 1172 c-3 -5 6 -7 19 -4 33 6 32 -14 -1 -22 -35 -9 -29 -41 9
-42 26 -1 28 1 25 35 -2 28 -8 37 -25 39 -11 2 -24 -1 -27 -6z m44 -42 c0 -12
-28 -25 -36 -17 -9 9 6 27 22 27 8 0 14 -5 14 -10z"/>
<path d="M6181 1136 l2 -41 6 35 c8 48 38 54 44 8 l4 -33 -1 35 c-1 31 -4 35
-28 36 -26 1 -28 -1 -27 -40z"/>
<path d="M4043 1850 c0 -25 2 -35 4 -22 2 12 2 32 0 45 -2 12 -4 2 -4 -23z"/>
<path d="M4073 1879 c10 -6 17 -23 18 -42 1 -18 3 -24 6 -14 8 30 -6 67 -25
67 -16 -1 -16 -1 1 -11z"/>
<path d="M4120 1871 c-15 -29 4 -63 33 -59 18 2 22 10 22 38 0 28 -4 36 -22
38 -14 2 -26 -4 -33 -17z m45 -21 c0 -15 -6 -26 -16 -28 -19 -3 -31 21 -22 43
9 25 38 13 38 -15z"/>
<path d="M4501 1016 c-1 -5 4 -26 11 -48 10 -33 9 -41 -3 -50 -12 -8 -12 -9 0
-6 13 4 56 108 45 108 -3 0 -10 -14 -16 -32 l-11 -32 -13 34 c-7 19 -13 31
-13 26z"/>
<path d="M4586 1012 c-3 -6 2 -8 13 -5 10 3 22 0 25 -6 5 -7 -4 -11 -23 -11
-32 0 -41 -16 -19 -38 14 -14 44 -16 52 -3 3 4 -5 6 -18 4 -15 -3 -25 1 -29
11 -5 12 0 16 24 16 24 0 30 4 27 18 -4 19 -42 29 -52 14z"/>
<path d="M4667 1013 c-15 -14 -6 -31 18 -37 15 -4 23 -11 19 -17 -3 -6 -15 -9
-25 -6 -11 3 -17 1 -13 -4 9 -15 41 -10 48 6 4 10 -3 20 -19 27 -30 13 -33 33
-5 25 11 -3 18 -1 14 4 -6 11 -28 12 -37 2z"/>
</g>
</svg>
