<?xml version="1.0" standalone="no"?>
<!DOCTYPE svg PUBLIC "-//W3C//DTD SVG 20010904//EN"
 "http://www.w3.org/TR/2001/REC-SVG-20010904/DTD/svg10.dtd">
<svg version="1.0" xmlns="http://www.w3.org/2000/svg"
 width="766.000000pt" height="666.000000pt" viewBox="0 0 766.000000 666.000000"
 preserveAspectRatio="xMidYMid meet">

<g transform="translate(0.000000,666.000000) scale(0.100000,-0.100000)"
fill="#000000" stroke="none">
<path d="M1719 6590 c-293 -33 -519 -161 -610 -346 -31 -62 -34 -77 -34 -154
0 -75 4 -93 31 -150 40 -83 89 -139 176 -200 120 -84 286 -140 461 -155 l77
-7 0 -134 c0 -74 -3 -134 -6 -134 -3 0 -14 5 -25 11 -18 9 -18 6 6 -40 14 -28
25 -53 25 -56 0 -3 -169 -5 -375 -5 l-375 0 0 -380 0 -380 375 0 375 0 0 -200
c0 -110 -3 -200 -6 -200 -3 0 -14 5 -25 10 -17 10 -16 5 8 -45 l27 -55 -252
-253 -252 -252 250 -250 250 -250 0 -143 c0 -138 -1 -142 -19 -132 -32 17 -33
12 -5 -41 l26 -52 -253 -253 -254 -254 253 -253 252 -252 0 -203 c0 -197 -1
-202 -19 -192 -32 17 -33 12 -6 -40 l25 -50 -248 0 -248 0 -124 -373 c-69
-204 -126 -378 -128 -384 -3 -10 127 -13 626 -13 l629 0 65 188 64 187 888 3
888 2 -6 -25 -7 -26 50 25 49 25 6 -48 c19 -147 164 -300 356 -377 139 -57
203 -68 390 -68 200 -1 292 16 426 79 147 67 239 149 300 265 26 49 29 65 29
150 0 82 -4 103 -26 150 -72 152 -236 270 -450 324 -49 13 -92 25 -95 29 -4 3
6 27 20 53 29 52 28 61 -5 44 -22 -12 -22 -12 -16 50 4 35 7 155 7 266 l0 204
248 0 247 0 124 373 c68 204 126 378 129 385 3 10 -124 12 -629 10 l-632 -3
-61 -182 c-34 -100 -64 -184 -68 -188 -3 -3 -29 5 -58 20 -47 24 -50 24 -41 6
6 -11 11 -22 11 -25 0 -3 -241 -6 -535 -6 l-535 0 0 373 0 372 248 248 247
247 389 0 388 0 -6 -25 -7 -26 42 21 c22 12 43 19 46 16 3 -3 -22 -86 -55
-185 l-60 -181 631 0 632 0 124 373 c68 204 126 378 128 384 4 10 -128 12
-628 10 l-632 -2 -61 -182 c-34 -100 -64 -184 -68 -188 -3 -3 -29 5 -58 20
-47 24 -50 24 -41 6 6 -11 11 -22 11 -25 0 -3 -174 -6 -387 -6 l-388 0 -252
252 -253 253 -254 -254 -253 -253 -52 26 c-53 28 -58 27 -41 -5 10 -19 5 -19
-257 -19 l-268 0 -249 249 -248 248 26 51 c31 61 32 66 7 52 -11 -5 -22 -10
-25 -10 -3 0 -6 90 -6 200 l0 200 375 0 375 0 0 380 0 380 -375 0 -375 0 25
50 c30 59 31 64 6 50 -11 -5 -22 -10 -25 -10 -3 0 -6 60 -6 134 l0 134 78 7
c122 10 267 50 371 101 116 57 222 156 267 249 26 53 29 70 29 155 0 84 -3
102 -28 152 -114 233 -479 386 -828 348z m371 -40 c200 -51 376 -173 442 -308
30 -59 33 -76 33 -152 0 -76 -3 -92 -32 -150 -50 -101 -137 -182 -258 -243
-140 -70 -273 -98 -455 -98 -241 0 -454 72 -591 198 -220 204 -188 469 78 644
82 53 210 103 322 124 112 21 350 14 461 -15z m480 -1710 l0 -370 -745 0 -745
0 0 370 0 370 745 0 745 0 0 -370z m-492 -1133 l242 -242 -248 -248 -247 -247
-245 245 -245 245 245 245 c135 135 247 245 250 245 3 0 114 -109 248 -243z
m1620 0 l242 -242 -245 -245 -245 -245 -245 245 -245 245 242 242 c134 134
245 243 248 243 3 0 114 -109 248 -243z m2489 111 c-2 -7 -33 -100 -68 -205
-61 -186 -83 -229 -79 -160 3 47 1 61 -7 53 -10 -10 -4 -89 7 -96 6 -4 -13
-74 -43 -161 l-52 -154 -615 2 c-338 1 -614 5 -614 10 1 4 55 169 120 366
l119 357 618 0 c491 0 618 -3 614 -12z m-3327 -364 c0 -3 -5 -14 -10 -25 -14
-24 -9 -24 49 5 l48 25 247 -248 246 -247 0 -377 1 -377 545 0 546 0 -6 -25
-7 -26 42 21 c22 12 43 19 46 16 3 -3 -22 -86 -55 -185 l-60 -181 376 -2 377
-3 -1 -150 c-3 -395 -2 -377 -24 -365 -25 13 -25 12 0 -45 11 -26 20 -48 20
-50 0 -2 -53 -1 -117 2 -256 11 -505 -67 -654 -204 -75 -70 -115 -133 -136
-218 -10 -39 -18 -72 -20 -74 -1 -2 -23 8 -49 23 -56 31 -58 32 -44 5 7 -11
10 -23 7 -25 -2 -2 -400 -3 -885 -2 l-881 3 63 187 63 188 -379 0 -378 0 25
50 c27 52 26 57 -6 40 -18 -10 -19 -5 -19 192 l0 203 252 252 253 253 -254
254 -253 253 26 52 c28 53 27 58 -5 41 -18 -10 -19 -6 -19 127 l0 138 252 252
253 253 262 0 c145 0 263 -3 263 -6z m-790 -1609 l-245 -245 -245 245 -245
245 245 245 245 245 245 -245 245 -245 -245 -245z m3917 723 c-2 -7 -33 -100
-68 -205 -61 -186 -83 -229 -79 -160 3 47 1 61 -7 53 -10 -10 -4 -89 7 -96 8
-5 -80 -294 -94 -308 -10 -10 -1236 -7 -1233 3 2 6 58 171 123 368 l119 357
618 0 c491 0 618 -3 614 -12z m-690 -1384 c234 -48 416 -170 491 -331 23 -49
27 -71 27 -143 -1 -112 -32 -179 -124 -270 -346 -342 -1129 -267 -1322 126
-30 60 -34 77 -33 144 2 166 105 304 299 400 190 93 436 121 662 74z m-2783
-266 c-76 -228 -85 -249 -95 -242 -12 7 -11 54 1 54 6 0 5 6 -2 14 -8 8 -15
10 -19 4 -8 -13 6 -79 19 -87 5 -3 -14 -73 -42 -156 l-51 -150 -615 -5 c-338
-3 -617 -4 -619 -2 -3 1 24 89 59 195 56 167 65 187 70 157 6 -42 42 -54 60
-21 15 29 -4 65 -31 58 -15 -4 -19 0 -19 20 0 21 83 292 97 316 2 4 283 7 623
7 l618 0 -54 -162z m-1240 -203 c8 -21 -3 -45 -20 -45 -8 0 -17 7 -20 15 -8
21 2 45 20 45 7 0 16 -7 20 -15z"/>
<path d="M1759 6128 c-4 -39 9 -88 23 -88 9 0 9 3 0 12 -14 14 -16 55 -3 60 5
2 3 9 -5 16 -11 10 -14 10 -15 0z"/>
<path d="M1940 6132 c0 -7 -11 -12 -25 -12 -23 0 -25 -3 -23 -42 l1 -43 4 38
c3 29 9 37 24 37 15 0 19 -7 19 -35 0 -19 3 -35 8 -35 8 0 7 88 -2 97 -3 4 -6
1 -6 -5z"/>
<path d="M1686 6105 c-4 -10 3 -20 19 -27 34 -15 32 -32 -2 -23 -21 5 -25 4
-17 -5 7 -7 20 -10 30 -8 27 5 30 35 5 43 -27 8 -27 29 -1 22 11 -3 18 -1 14
4 -9 15 -41 10 -48 -6z"/>
<path d="M1806 6111 c-3 -4 6 -6 19 -3 33 6 32 -14 -1 -22 -36 -9 -28 -41 11
-43 29 -1 30 0 27 38 -4 33 -8 39 -27 39 -13 0 -26 -4 -29 -9z m44 -41 c0 -13
-28 -25 -38 -16 -3 4 0 11 8 16 20 13 30 12 30 0z"/>
<path d="M1801 4870 c0 -24 2 -31 8 -21 12 19 41 6 41 -19 0 -25 -29 -38 -41
-19 -7 11 -9 11 -9 -3 0 -22 33 -24 50 -3 17 21 4 65 -19 65 -11 0 -22 8 -24
18 -3 9 -5 1 -6 -18z"/>
<path d="M1676 4862 c-3 -5 6 -7 19 -4 33 6 32 -14 -1 -22 -35 -9 -29 -41 9
-42 26 -1 28 1 25 35 -2 28 -8 37 -25 39 -11 2 -24 -1 -27 -6z m44 -42 c0 -12
-28 -25 -36 -17 -9 9 6 27 22 27 8 0 14 -5 14 -10z"/>
<path d="M1924 4856 c-16 -42 20 -86 48 -58 6 6 0 8 -17 4 -24 -4 -26 -2 -23
24 2 22 8 29 25 28 12 0 20 3 17 8 -8 13 -44 9 -50 -6z"/>
<path d="M1861 3490 c0 -24 2 -31 8 -21 12 19 41 6 41 -19 0 -25 -29 -38 -41
-19 -7 11 -9 11 -9 -3 0 -22 33 -24 50 -3 17 21 4 65 -19 65 -11 0 -22 8 -24
18 -3 9 -5 1 -6 -18z"/>
<path d="M1987 3513 c-4 -3 -7 -11 -7 -17 0 -6 5 -5 12 2 7 7 18 12 25 12 15
0 18 -36 3 -45 -5 -3 -10 -14 -10 -23 0 -10 7 -3 16 15 9 18 14 39 10 48 -5
15 -37 21 -49 8z"/>
<path d="M1606 3482 c-3 -5 6 -7 19 -4 33 6 32 -14 -1 -22 -35 -9 -29 -41 9
-42 26 -1 28 1 25 35 -2 28 -8 37 -25 39 -11 2 -24 -1 -27 -6z m44 -42 c0 -12
-28 -25 -36 -17 -9 9 6 27 22 27 8 0 14 -5 14 -10z"/>
<path d="M1759 3476 l24 -14 -22 -7 c-12 -4 -20 -9 -18 -12 3 -2 15 1 28 8 22
11 22 12 4 25 -10 8 -24 14 -29 14 -6 -1 0 -7 13 -14z"/>
<path d="M3587 3513 c-4 -3 -7 -11 -7 -17 0 -6 5 -5 12 2 7 7 18 12 25 12 15
0 18 -36 3 -45 -5 -3 -10 -14 -10 -23 0 -10 7 -3 16 15 9 18 14 39 10 48 -5
15 -37 21 -49 8z"/>
<path d="M3256 3482 c-3 -5 6 -7 19 -4 33 6 32 -14 -1 -22 -35 -9 -29 -41 9
-42 26 -1 28 1 25 35 -2 28 -8 37 -25 39 -11 2 -24 -1 -27 -6z m44 -42 c0 -12
-28 -25 -36 -17 -9 9 6 27 22 27 8 0 14 -5 14 -10z"/>
<path d="M3409 3476 l24 -14 -22 -7 c-12 -4 -20 -9 -18 -12 3 -2 15 1 28 8 22
11 22 12 4 25 -10 8 -24 14 -29 14 -6 -1 0 -7 13 -14z"/>
<path d="M3510 3475 c-15 -18 -10 -45 12 -59 12 -7 21 -7 28 0 8 8 4 10 -12
10 -18 -1 -23 4 -23 24 0 19 5 25 22 24 12 0 20 3 17 8 -8 13 -30 9 -44 -7z"/>
<path d="M4973 3465 c0 -33 2 -45 4 -27 2 18 2 45 0 60 -2 15 -4 0 -4 -33z"/>
<path d="M5543 3465 c0 -33 2 -45 4 -27 2 18 2 45 0 60 -2 15 -4 0 -4 -33z"/>
<path d="M5862 3465 c1 -47 2 -52 7 -25 8 48 38 54 44 8 l4 -33 -1 35 c-1 28
-5 35 -21 35 -11 0 -23 9 -27 20 -3 11 -6 -7 -6 -40z"/>
<path d="M5368 3497 c-7 -22 7 -80 20 -83 7 -1 8 0 2 3 -12 6 -13 60 -1 65 5
2 3 8 -4 15 -10 9 -14 9 -17 0z"/>
<path d="M4850 3482 c0 -6 8 -8 19 -5 10 3 22 0 25 -5 3 -6 -8 -13 -24 -17
-43 -10 -37 -40 8 -41 32 -1 33 0 30 35 -3 31 -7 36 -30 39 -16 2 -28 -1 -28
-6z m44 -47 c-4 -8 -15 -15 -25 -15 -21 0 -26 16 -6 23 24 10 36 7 31 -8z"/>
<path d="M5006 3481 c-3 -4 6 -6 19 -3 33 6 32 -14 -1 -22 -36 -9 -28 -41 11
-43 29 -1 30 0 27 38 -4 33 -8 39 -27 39 -13 0 -26 -4 -29 -9z m44 -41 c0 -13
-28 -25 -38 -16 -3 4 0 11 8 16 20 13 30 12 30 0z"/>
<path d="M5132 3478 c-27 -27 0 -77 34 -64 10 4 14 2 11 -6 -2 -7 -16 -12 -31
-11 -14 1 -24 -2 -21 -8 9 -13 39 -11 53 3 7 7 12 30 12 53 0 35 -3 41 -23 43
-13 1 -29 -4 -35 -10z m43 -28 c0 -29 -32 -41 -41 -16 -9 24 4 48 23 44 12 -2
18 -12 18 -28z"/>
<path d="M5213 3450 c0 -25 2 -35 4 -22 2 12 2 32 0 45 -2 12 -4 2 -4 -23z"/>
<path d="M5250 3481 c0 -6 7 -8 15 -5 31 12 37 -9 5 -22 -39 -17 -35 -39 9
-40 31 -1 32 0 29 35 -3 31 -7 36 -30 39 -16 2 -28 -1 -28 -7z m44 -46 c-4 -8
-15 -15 -25 -15 -21 0 -26 16 -6 23 24 10 36 7 31 -8z"/>
<path d="M5411 3445 c2 -33 3 -35 6 -10 2 17 11 35 20 42 13 10 13 12 -6 10
-18 -1 -21 -7 -20 -42z"/>
<path d="M5463 3450 c0 -25 2 -35 4 -22 2 12 2 32 0 45 -2 12 -4 2 -4 -23z"/>
<path d="M5574 3476 c-3 -8 -4 -25 -2 -38 2 -17 9 -23 28 -23 15 0 25 6 26 15
1 10 -1 10 -3 2 -7 -21 -38 -9 -41 16 -4 26 25 42 40 21 8 -12 9 -11 5 1 -5
20 -46 25 -53 6z"/>
<path d="M5651 3446 l2 -41 6 35 c8 48 38 54 44 8 l4 -33 -1 35 c-1 31 -4 35
-28 36 -26 1 -28 -1 -27 -40z"/>
<path d="M5783 3450 c0 -25 2 -35 4 -22 2 12 2 32 0 45 -2 12 -4 2 -4 -23z"/>
<path d="M5812 3478 c9 -7 19 -26 21 -43 3 -21 4 -18 3 10 -1 31 -5 41 -21 43
-18 4 -19 3 -3 -10z"/>
<path d="M5950 3481 c0 -6 7 -8 15 -5 31 12 37 -9 5 -22 -39 -17 -35 -39 9
-40 31 -1 32 0 29 35 -3 31 -7 36 -30 39 -16 2 -28 -1 -28 -7z m44 -46 c-4 -8
-15 -15 -25 -15 -21 0 -26 16 -6 23 24 10 36 7 31 -8z"/>
<path d="M2013 2790 c0 -25 2 -35 4 -22 2 12 2 32 0 45 -2 12 -4 2 -4 -23z"/>
<path d="M2043 2819 c10 -6 17 -23 18 -42 1 -18 3 -24 6 -14 8 30 -6 67 -25
67 -16 -1 -16 -1 1 -11z"/>
<path d="M2090 2811 c-15 -29 4 -63 33 -59 18 2 22 10 22 38 0 28 -4 36 -22
38 -14 2 -26 -4 -33 -17z m45 -21 c0 -15 -6 -26 -16 -28 -19 -3 -31 21 -22 43
9 25 38 13 38 -15z"/>
<path d="M1629 2146 c-3 -4 -4 -18 -1 -32 3 -17 7 -22 12 -13 12 18 40 3 40
-21 0 -25 -29 -38 -41 -19 -7 11 -9 11 -9 -3 0 -22 33 -24 50 -3 17 21 4 65
-19 65 -11 0 -21 7 -23 16 -2 9 -6 13 -9 10z"/>
<path d="M1959 2133 c-13 -15 -12 -15 8 -2 18 10 25 11 35 1 9 -9 8 -16 -5
-30 -9 -10 -17 -25 -17 -33 0 -8 10 1 21 19 12 18 18 39 15 47 -7 20 -40 19
-57 -2z"/>
<path d="M1750 2124 c0 -3 15 -11 33 -19 17 -8 25 -14 16 -15 -8 0 -24 -7 -35
-15 -17 -13 -16 -14 14 -2 41 17 42 27 3 43 -17 7 -31 11 -31 8z"/>
<path d="M1884 2106 c-16 -42 20 -86 48 -58 6 6 0 8 -17 4 -24 -4 -26 -2 -23
24 2 22 8 29 25 28 12 0 20 3 17 8 -8 13 -44 9 -50 -6z"/>
<path d="M4773 2215 c0 -33 2 -45 4 -27 2 18 2 45 0 60 -2 15 -4 0 -4 -33z"/>
<path d="M5333 2215 c0 -33 2 -45 4 -27 2 18 2 45 0 60 -2 15 -4 0 -4 -33z"/>
<path d="M5663 2215 c0 -39 2 -47 4 -22 6 50 35 48 45 -3 l6 -35 -1 40 c-2 33
-6 41 -24 43 -12 2 -24 11 -26 20 -3 9 -4 -10 -4 -43z"/>
<path d="M5168 2250 c-5 -17 3 -90 11 -90 3 0 5 21 4 46 -1 46 -8 65 -15 44z"/>
<path d="M4654 2226 c-16 -42 20 -86 48 -58 6 6 0 8 -17 4 -24 -4 -26 -2 -23
24 2 22 8 29 25 28 12 0 20 3 17 8 -8 13 -44 9 -50 -6z"/>
<path d="M4806 2232 c-3 -5 6 -7 19 -4 33 6 32 -14 -1 -22 -35 -9 -29 -41 9
-42 26 -1 28 1 25 35 -2 28 -8 37 -25 39 -11 2 -24 -1 -27 -6z m44 -42 c0 -12
-28 -25 -36 -17 -9 9 6 27 22 27 8 0 14 -5 14 -10z"/>
<path d="M4932 2228 c-28 -28 -5 -69 36 -65 19 1 22 7 22 39 0 33 -3 38 -23
38 -13 0 -28 -5 -35 -12z m42 -13 c8 -21 -3 -45 -20 -45 -8 0 -17 7 -20 15 -8
21 2 45 20 45 7 0 16 -7 20 -15z"/>
<path d="M5013 2200 c0 -25 2 -35 4 -22 2 12 2 32 0 45 -2 12 -4 2 -4 -23z"/>
<path d="M5046 2232 c-3 -5 6 -7 19 -4 33 6 32 -14 -1 -22 -35 -9 -29 -41 9
-42 26 -1 28 1 25 35 -2 28 -8 37 -25 39 -11 2 -24 -1 -27 -6z m44 -42 c0 -12
-28 -25 -36 -17 -9 9 6 27 22 27 8 0 14 -5 14 -10z"/>
<path d="M5212 2198 c1 -41 1 -41 5 -8 3 19 10 38 16 42 8 5 6 8 -5 8 -15 0
-18 -8 -16 -42z"/>
<path d="M5263 2200 c0 -25 2 -35 4 -22 2 12 2 32 0 45 -2 12 -4 2 -4 -23z"/>
<path d="M5370 2225 c-26 -31 13 -82 44 -56 19 16 21 42 4 59 -16 16 -33 15
-48 -3z m45 -25 c0 -29 -32 -41 -41 -16 -9 24 4 48 23 44 12 -2 18 -12 18 -28z"/>
<path d="M5451 2196 l2 -41 6 35 c8 48 38 54 44 8 l4 -33 -1 35 c-1 31 -4 35
-28 36 -26 1 -28 -1 -27 -40z"/>
<path d="M5583 2200 c0 -25 2 -35 4 -22 2 12 2 32 0 45 -2 12 -4 2 -4 -23z"/>
<path d="M5613 2229 c10 -6 17 -23 18 -42 1 -18 3 -24 6 -14 8 30 -6 67 -25
67 -16 -1 -16 -1 1 -11z"/>
<path d="M5746 2232 c-3 -5 6 -7 19 -4 33 6 32 -14 -1 -22 -35 -9 -29 -41 9
-42 26 -1 28 1 25 35 -2 28 -8 37 -25 39 -11 2 -24 -1 -27 -6z m44 -42 c0 -12
-28 -25 -36 -17 -9 9 6 27 22 27 8 0 14 -5 14 -10z"/>
<path d="M4927 2138 c2 -5 13 -8 23 -8 10 0 21 3 23 8 3 4 -8 7 -23 7 -15 0
-26 -3 -23 -7z"/>
<path d="M5180 752 c0 -13 -7 -18 -21 -18 -12 1 -26 -7 -33 -16 -15 -25 4 -53
38 -54 25 -1 26 1 26 52 0 30 -2 54 -5 54 -3 0 -5 -8 -5 -18z m-6 -37 c8 -21
-3 -45 -20 -45 -8 0 -17 7 -20 15 -8 21 2 45 20 45 7 0 16 -7 20 -15z"/>
<path d="M4966 732 c-3 -6 2 -8 13 -5 10 3 22 0 25 -6 5 -7 -4 -11 -23 -11
-32 0 -41 -16 -19 -38 14 -14 44 -16 52 -3 3 4 -5 6 -18 4 -15 -3 -25 1 -29
11 -5 12 0 16 24 16 24 0 30 4 27 18 -4 19 -42 29 -52 14z"/>
<path d="M5041 696 l2 -41 6 35 c8 48 38 54 44 8 l4 -33 -1 35 c-1 31 -4 35
-28 36 -26 1 -28 -1 -27 -40z"/>
<path d="M1353 715 c0 -33 2 -45 4 -27 2 18 2 45 0 60 -2 15 -4 0 -4 -33z"/>
<path d="M1913 715 c0 -33 2 -45 4 -27 2 18 2 45 0 60 -2 15 -4 0 -4 -33z"/>
<path d="M2243 715 c0 -39 2 -47 4 -22 6 50 35 48 45 -3 l6 -35 -1 40 c-2 33
-6 41 -24 43 -12 2 -24 11 -26 20 -3 9 -4 -10 -4 -43z"/>
<path d="M1748 750 c-5 -17 3 -90 11 -90 3 0 5 21 4 46 -1 46 -8 65 -15 44z"/>
<path d="M1385 731 c-3 -7 0 -8 9 -5 32 12 38 -9 6 -22 -39 -17 -35 -39 9 -40
31 -1 32 0 29 35 -2 28 -8 37 -25 39 -11 2 -24 -2 -28 -7z m45 -40 c0 -15 -19
-23 -38 -16 -14 5 -14 7 -2 15 19 12 40 13 40 1z"/>
<path d="M1504 726 c-12 -31 0 -61 24 -60 13 0 22 -5 22 -14 0 -10 -8 -13 -26
-9 -16 3 -22 1 -16 -5 6 -6 18 -8 28 -6 15 2 20 14 22 53 3 48 2 51 -23 53
-15 1 -28 -4 -31 -12z m41 -26 c0 -13 -6 -25 -12 -27 -16 -6 -27 21 -19 43 9
23 31 11 31 -16z"/>
<path d="M1593 700 c0 -25 2 -35 4 -22 2 12 2 32 0 45 -2 12 -4 2 -4 -23z"/>
<path d="M1626 732 c-3 -5 6 -7 19 -4 33 6 32 -14 -1 -22 -35 -9 -29 -41 9
-42 26 -1 28 1 25 35 -2 28 -8 37 -25 39 -11 2 -24 -1 -27 -6z m44 -42 c0 -12
-28 -25 -36 -17 -9 9 6 27 22 27 8 0 14 -5 14 -10z"/>
<path d="M1792 698 c1 -41 1 -41 5 -8 3 19 10 38 16 42 8 5 6 8 -5 8 -15 0
-18 -8 -16 -42z"/>
<path d="M1843 700 c0 -25 2 -35 4 -22 2 12 2 32 0 45 -2 12 -4 2 -4 -23z"/>
<path d="M1950 725 c-26 -31 13 -82 44 -56 19 16 21 42 4 59 -16 16 -33 15
-48 -3z m45 -25 c0 -16 -6 -26 -18 -28 -19 -4 -32 20 -23 44 9 25 41 13 41
-16z"/>
<path d="M2033 700 c0 -25 2 -35 4 -22 2 12 2 32 0 45 -2 12 -4 2 -4 -23z"/>
<path d="M2062 728 c9 -7 19 -26 21 -43 3 -21 4 -18 3 10 -1 31 -5 41 -21 43
-18 4 -19 3 -3 -10z"/>
<path d="M2151 696 l2 -41 6 35 c8 48 38 54 44 8 l4 -33 -1 35 c-1 31 -4 35
-28 36 -26 1 -28 -1 -27 -40z"/>
<path d="M2326 732 c-3 -5 6 -7 19 -4 33 6 32 -14 -1 -22 -35 -9 -29 -41 9
-42 26 -1 28 1 25 35 -2 28 -8 37 -25 39 -11 2 -24 -1 -27 -6z m44 -42 c0 -12
-28 -25 -36 -17 -9 9 6 27 22 27 8 0 14 -5 14 -10z"/>
<path d="M2471 3706 c-1 -5 4 -26 11 -48 10 -33 9 -41 -3 -50 -12 -8 -12 -9 0
-6 13 4 56 108 45 108 -3 0 -10 -14 -16 -32 l-11 -32 -13 34 c-7 19 -13 31
-13 26z"/>
<path d="M2556 3702 c-3 -6 2 -8 13 -5 10 3 22 0 25 -6 5 -7 -4 -11 -23 -11
-32 0 -41 -16 -19 -38 14 -14 44 -16 52 -3 3 4 -5 6 -18 4 -15 -3 -25 1 -29
11 -5 12 0 16 24 16 24 0 30 4 27 18 -4 19 -42 29 -52 14z"/>
<path d="M2637 3703 c-15 -14 -6 -31 18 -37 15 -4 23 -11 19 -17 -3 -6 -15 -9
-25 -6 -11 3 -17 1 -13 -4 9 -15 41 -10 48 6 4 10 -3 20 -19 27 -30 13 -33 33
-5 25 11 -3 18 -1 14 4 -6 11 -28 12 -37 2z"/>
<path d="M4090 3705 c0 -5 5 -17 10 -25 5 -8 10 -10 10 -5 0 6 -5 17 -10 25
-5 8 -10 11 -10 5z"/>
<path d="M4135 3681 c-4 -19 -11 -29 -18 -24 -7 4 -8 0 -4 -12 4 -9 2 -25 -5
-34 -11 -14 -11 -14 3 -4 16 13 44 91 36 100 -3 2 -8 -9 -12 -26z"/>
<path d="M4182 3701 c-20 -12 -11 -65 12 -69 10 -2 22 0 27 5 6 6 1 9 -12 9
-12 -1 -24 5 -26 12 -3 8 6 12 26 12 33 0 39 8 19 28 -14 14 -28 15 -46 3z
m43 -11 c4 -6 -5 -10 -20 -10 -15 0 -24 4 -20 10 3 6 12 10 20 10 8 0 17 -4
20 -10z"/>
<path d="M4257 3703 c-13 -12 -7 -23 18 -35 33 -15 32 -32 -1 -25 -16 3 -22 1
-16 -5 15 -15 46 -5 50 14 2 12 -5 19 -22 24 -33 8 -34 28 -1 22 13 -3 22 -1
19 3 -6 11 -38 12 -47 2z"/>
<path d="M3513 2790 c0 -25 2 -35 4 -22 2 12 2 32 0 45 -2 12 -4 2 -4 -23z"/>
<path d="M3543 2819 c10 -6 17 -23 18 -42 1 -18 3 -24 6 -14 8 30 -6 67 -25
67 -16 -1 -16 -1 1 -11z"/>
<path d="M3590 2811 c-15 -29 4 -63 33 -59 18 2 22 10 22 38 0 28 -4 36 -22
38 -14 2 -26 -4 -33 -17z m45 -21 c0 -15 -6 -26 -16 -28 -19 -3 -31 21 -22 43
9 25 38 13 38 -15z"/>
</g>
</svg>
