<?xml version="1.0" standalone="no"?>
<!DOCTYPE svg PUBLIC "-//W3C//DTD SVG 20010904//EN"
 "http://www.w3.org/TR/2001/REC-SVG-20010904/DTD/svg10.dtd">
<svg version="1.0" xmlns="http://www.w3.org/2000/svg"
 width="723.000000pt" height="692.000000pt" viewBox="0 0 723.000000 692.000000"
 preserveAspectRatio="xMidYMid meet">

<g transform="translate(0.000000,692.000000) scale(0.100000,-0.100000)"
fill="#000000" stroke="none">
<path d="M1615 6719 c-101 -12 -238 -50 -315 -89 -33 -17 -60 -32 -60 -34 0
-2 35 11 78 30 103 44 217 73 319 81 45 3 80 10 77 14 -3 5 -8 8 -12 8 -4 -1
-43 -6 -87 -10z"/>
<path d="M1760 6722 c0 -5 35 -12 78 -15 101 -8 230 -41 320 -82 39 -19 72
-30 72 -25 0 25 -253 106 -360 116 -36 3 -75 7 -87 10 -13 2 -23 0 -23 -4z"/>
<path d="M1152 6540 c-48 -35 -113 -118 -141 -181 -20 -45 -41 -154 -22 -114
5 11 10 29 10 40 2 50 63 150 132 217 39 37 69 68 66 68 -2 0 -22 -13 -45 -30z"/>
<path d="M2284 6562 c4 -7 30 -33 56 -58 66 -61 111 -134 133 -213 16 -59 17
-61 13 -20 -7 61 -35 123 -83 185 -37 46 -138 136 -119 106z"/>
<path d="M1669 6258 c-4 -39 9 -88 23 -88 9 0 9 3 0 12 -14 14 -16 55 -3 60 5
2 3 9 -5 16 -11 10 -14 10 -15 0z"/>
<path d="M1850 6262 c0 -7 -11 -12 -25 -12 -23 0 -25 -3 -23 -42 l1 -43 4 38
c3 29 9 37 24 37 15 0 19 -7 19 -35 0 -19 3 -35 8 -35 8 0 7 88 -2 97 -3 4 -6
1 -6 -5z"/>
<path d="M1596 6235 c-4 -10 3 -20 19 -27 34 -15 32 -32 -2 -23 -21 5 -25 4
-17 -5 7 -7 20 -10 30 -8 27 5 30 35 5 43 -27 8 -27 29 -1 22 11 -3 18 -1 14
4 -9 15 -41 10 -48 -6z"/>
<path d="M1716 6241 c-3 -4 6 -6 19 -3 33 6 32 -14 -1 -22 -36 -9 -28 -41 11
-43 29 -1 30 0 27 38 -4 33 -8 39 -27 39 -13 0 -26 -4 -29 -9z m44 -41 c0 -13
-28 -25 -38 -16 -3 4 0 11 8 16 20 13 30 12 30 0z"/>
<path d="M984 6170 c14 -95 97 -225 179 -282 20 -13 8 4 -34 48 -81 86 -104
124 -125 205 -19 77 -29 91 -20 29z"/>
<path d="M2476 6168 c-11 -74 -59 -157 -133 -232 -37 -38 -54 -60 -37 -48 42
29 106 100 137 153 28 49 51 127 45 155 -2 11 -7 -2 -12 -28z"/>
<path d="M1240 5841 c0 -15 142 -73 235 -96 98 -24 250 -42 241 -27 -3 5 -43
12 -88 15 -106 8 -224 38 -315 82 -40 19 -73 30 -73 26z"/>
<path d="M2168 5820 c-81 -42 -219 -80 -316 -87 -45 -3 -85 -10 -88 -15 -9
-14 134 3 235 28 95 24 231 80 231 95 0 11 4 13 -62 -21z"/>
<path d="M1732 5578 c-1 -76 -5 -138 -8 -138 -3 0 -14 5 -25 11 -18 9 -18 6 6
-40 14 -28 25 -53 25 -56 0 -3 -169 -5 -375 -5 l-375 0 0 -380 0 -380 375 0
375 0 0 -200 c0 -110 -3 -200 -6 -200 -3 0 -14 5 -25 11 -18 9 -18 6 6 -40 14
-28 25 -53 25 -56 0 -3 -112 -5 -249 -5 l-249 0 -123 -367 c-67 -203 -124
-374 -127 -380 -3 -10 75 -13 372 -13 l376 0 0 -200 c0 -110 -3 -200 -6 -200
-3 0 -14 5 -25 10 -17 10 -16 5 8 -45 l27 -55 -252 -253 -252 -252 250 -250
250 -250 0 -172 c0 -95 -3 -173 -6 -173 -3 0 -14 5 -25 11 -18 9 -18 6 6 -40
14 -28 25 -53 25 -56 0 -3 -24 -5 -54 -5 -116 0 -300 -49 -418 -112 -90 -48
-201 -156 -239 -234 -103 -209 6 -433 274 -564 150 -73 247 -94 437 -94 171
-1 255 13 390 65 147 56 277 165 333 279 29 59 32 73 32 161 0 91 1 96 18 87
16 -8 18 -7 12 12 l-7 21 1046 -3 c575 -2 1046 -5 1046 -8 0 -3 -27 -86 -60
-185 -33 -99 -60 -181 -60 -182 0 -2 284 -2 632 -1 l631 3 124 370 c67 203
123 373 123 377 0 5 -169 8 -375 8 -206 0 -375 3 -375 8 0 4 7 17 15 29 8 11
19 33 25 47 9 24 8 26 -9 16 -11 -5 -22 -10 -25 -10 -3 0 -6 75 -6 167 l0 168
252 252 251 252 48 -25 c58 -29 63 -29 49 -5 -5 11 -10 22 -10 25 0 3 92 6
205 6 l205 0 0 1321 0 1321 -32 -2 c-18 -1 -75 -2 -125 -1 l-93 1 0 185 0 185
-755 0 -755 0 0 -380 0 -380 375 0 c206 0 375 -2 375 -5 0 -3 -11 -28 -25 -56
-24 -46 -24 -49 -6 -40 11 6 22 11 25 11 3 0 6 -90 6 -200 l0 -200 -375 0
-375 0 0 -380 0 -380 375 0 c206 0 375 -2 375 -5 0 -3 -11 -28 -25 -56 -24
-46 -24 -49 -6 -40 11 6 22 11 25 11 3 0 6 -91 6 -203 l0 -202 -250 -250 -250
-249 -55 27 c-50 24 -55 25 -45 8 5 -11 10 -22 10 -25 0 -3 -90 -6 -200 -6
l-200 0 0 190 0 190 -755 0 -755 0 0 -190 c0 -104 -2 -190 -5 -190 -3 0 -28
11 -56 25 -46 24 -49 24 -40 6 6 -11 11 -22 11 -25 0 -3 -91 -6 -202 -6 l-203
0 -248 249 -249 248 26 51 c31 61 32 66 7 52 -11 -5 -22 -10 -25 -10 -3 0 -6
90 -6 200 l0 200 252 2 251 3 124 370 c67 203 123 373 123 377 0 5 -169 8
-375 8 l-375 0 25 50 c30 59 31 64 6 50 -11 -5 -22 -10 -25 -10 -3 0 -6 90 -6
200 l0 200 375 0 375 0 0 380 0 380 -375 0 -375 0 26 51 26 52 -26 -7 -25 -6
-4 137 -3 138 -2 -137z m748 -608 l0 -370 -745 0 -745 0 0 370 0 370 745 0
745 0 0 -370z m3500 0 l0 -370 -745 0 -745 0 0 370 0 370 745 0 745 0 0 -370z
m250 -1315 l0 -1305 -200 0 c-110 0 -200 3 -200 6 0 3 5 14 10 25 10 17 5 16
-45 -8 l-56 -28 -249 251 -250 251 0 201 c0 111 3 202 6 202 3 0 14 -5 25 -10
25 -14 24 -9 -6 50 l-25 50 375 0 375 0 0 380 0 380 -375 0 -375 0 0 200 c0
110 3 200 6 200 3 0 14 -5 25 -10 17 -10 18 -8 9 15 -5 14 -17 39 -25 55 l-16
30 376 0 375 0 0 185 0 185 120 0 120 0 0 -1305z m-3874 68 l-123 -368 -616
-3 c-340 -1 -617 1 -617 5 0 5 54 171 121 370 l121 363 618 0 618 0 -122 -367z
m3624 -3 l0 -370 -745 0 -745 0 0 370 0 370 745 0 745 0 0 -370z m-3992 -1133
l242 -242 -248 -248 -247 -247 -245 245 -245 245 245 245 c135 135 247 245
250 245 3 0 114 -109 248 -243z m3500 0 l242 -242 -248 -248 -247 -247 -245
245 -245 245 245 245 c135 135 247 245 250 245 3 0 114 -109 248 -243z m-1260
-244 l-3 -368 -740 0 -740 0 -3 368 -2 367 745 0 745 0 -2 -367z m-1592 -28
l-7 -26 51 26 50 25 0 -190 0 -190 755 0 755 0 0 190 0 190 201 0 201 0 -6
-25 -7 -26 52 27 52 26 248 -248 249 -249 0 -172 c0 -95 -3 -173 -6 -173 -3 0
-14 5 -25 11 -18 9 -18 6 6 -40 14 -28 25 -53 25 -56 0 -3 -112 -5 -249 -5
l-249 0 -62 -186 -62 -186 -1043 4 c-574 1 -1047 6 -1051 10 -4 4 -1 14 6 23
15 19 9 19 -34 1 -34 -14 -35 -14 -46 15 -32 76 -177 191 -313 248 -85 35
-252 71 -331 71 l-57 0 16 30 c8 16 20 41 25 55 9 23 8 25 -9 15 -11 -5 -22
-10 -25 -10 -3 0 -6 75 -6 167 l0 168 252 252 253 253 199 0 198 0 -6 -25z
m-634 -949 c154 -39 294 -118 375 -210 54 -61 71 -95 54 -106 -11 -6 -9 -10 7
-19 52 -28 54 -172 3 -275 -41 -84 -88 -136 -176 -195 -147 -98 -313 -144
-525 -145 -261 -1 -476 74 -618 215 -67 66 -97 117 -118 199 -63 249 175 489
554 556 117 21 323 12 444 -20z m3854 -333 l-123 -368 -616 -3 c-340 -1 -617
1 -617 5 0 5 54 171 121 370 l121 363 618 0 618 0 -122 -367z"/>
<path d="M1718 5010 c-5 -17 3 -90 11 -90 3 0 5 21 4 46 -1 46 -8 65 -15 44z"/>
<path d="M1603 4960 c0 -25 2 -35 4 -22 2 12 2 32 0 45 -2 12 -4 2 -4 -23z"/>
<path d="M1643 4960 c0 -25 2 -35 4 -22 2 12 2 32 0 45 -2 12 -4 2 -4 -23z"/>
<path d="M1673 4989 c10 -6 17 -23 18 -42 1 -18 3 -24 6 -14 8 30 -6 67 -25
67 -16 -1 -16 -1 1 -11z"/>
<path d="M1801 4956 l2 -41 6 35 c8 48 38 54 44 8 l4 -33 -1 35 c-1 31 -4 35
-28 36 -26 1 -28 -1 -27 -40z"/>
<path d="M5221 4998 c0 -9 -9 -19 -18 -21 -16 -4 -16 -5 -1 -6 9 0 19 -9 21
-18 4 -16 5 -16 6 -1 0 9 9 19 19 21 15 4 15 5 0 6 -9 0 -19 9 -21 19 -4 15
-5 15 -6 0z"/>
<path d="M5311 4998 c0 -9 -9 -19 -18 -21 -16 -4 -16 -5 -1 -6 9 0 19 -9 21
-18 4 -16 5 -16 6 -1 0 9 9 19 19 21 15 4 15 5 0 6 -9 0 -19 9 -21 19 -4 15
-5 15 -6 0z"/>
<path d="M5123 4960 c0 -25 2 -35 4 -22 2 12 2 32 0 45 -2 12 -4 2 -4 -23z"/>
<path d="M5250 3085 c0 -5 5 -17 10 -25 5 -8 10 -10 10 -5 0 6 -5 17 -10 25
-5 8 -10 11 -10 5z"/>
<path d="M5300 3077 c0 -8 -7 -23 -16 -31 -8 -9 -12 -21 -9 -26 4 -6 1 -19 -7
-28 -11 -15 -11 -15 3 -5 17 14 44 91 35 101 -3 3 -6 -2 -6 -11z"/>
<path d="M5342 3081 c-20 -12 -11 -65 12 -69 10 -2 22 0 27 5 6 6 1 9 -12 9
-12 -1 -24 5 -26 12 -3 8 6 12 26 12 33 0 39 8 19 28 -14 14 -28 15 -46 3z
m43 -11 c4 -6 -5 -10 -20 -10 -15 0 -24 4 -20 10 3 6 12 10 20 10 8 0 17 -4
20 -10z"/>
<path d="M5417 3083 c-13 -12 -7 -23 18 -35 33 -15 32 -32 -1 -25 -16 3 -22 1
-16 -5 15 -15 46 -5 50 14 2 12 -5 19 -22 24 -33 8 -34 28 -1 22 13 -3 22 -1
19 3 -6 11 -38 12 -47 2z"/>
<path d="M1701 3706 l2 -41 6 35 c8 48 38 54 44 8 l4 -33 -1 35 c-1 31 -4 35
-28 36 -26 1 -28 -1 -27 -40z"/>
<path d="M5350 3769 c0 -5 -4 -7 -10 -4 -6 3 -7 -1 -4 -10 5 -12 10 -13 20 -4
8 6 11 15 8 20 -7 12 -14 11 -14 -2z"/>
<path d="M5021 3705 c2 -33 3 -35 6 -10 2 17 11 35 20 42 13 10 13 12 -6 10
-18 -1 -21 -7 -20 -42z"/>
<path d="M5128 3743 c12 -2 30 -2 40 0 9 3 -1 5 -23 4 -22 0 -30 -2 -17 -4z"/>
<path d="M5241 3705 c2 -33 3 -35 6 -10 2 17 11 35 20 42 13 10 13 12 -6 10
-18 -1 -21 -7 -20 -42z"/>
<path d="M5433 3710 c0 -25 2 -35 4 -22 2 12 2 32 0 45 -2 12 -4 2 -4 -23z"/>
<path d="M5128 3703 c12 -2 30 -2 40 0 9 3 -1 5 -23 4 -22 0 -30 -2 -17 -4z"/>
<path d="M1789 2376 c-14 -29 -4 -75 16 -83 23 -8 45 16 45 51 0 55 -41 76
-61 32z m46 -31 c0 -45 -28 -63 -40 -25 -10 33 3 72 23 68 13 -2 17 -13 17
-43z"/>
<path d="M1877 2393 c-4 -3 -7 -11 -7 -17 0 -6 5 -5 12 2 7 7 18 12 25 12 15
0 18 -36 3 -45 -5 -3 -10 -14 -10 -23 0 -10 7 -3 16 15 9 18 14 39 10 48 -5
15 -37 21 -49 8z"/>
<path d="M1531 2326 l2 -41 6 35 c8 48 38 54 44 8 l4 -33 -1 35 c-1 31 -4 35
-28 36 -26 1 -28 -1 -27 -40z"/>
<path d="M1689 2356 l24 -14 -22 -7 c-12 -4 -20 -9 -18 -12 3 -2 15 1 28 8 22
11 22 12 4 25 -10 8 -24 14 -29 14 -6 -1 0 -7 13 -14z"/>
<path d="M5395 2390 c-4 -6 -4 -14 -1 -17 3 -4 6 -1 6 5 0 15 26 16 35 2 3 -5
-1 -20 -9 -32 -24 -33 -19 -45 5 -14 11 14 19 34 17 44 -4 20 -43 29 -53 12z"/>
<path d="M5118 2364 c-16 -8 -28 -17 -28 -19 0 -2 15 -12 33 -20 28 -14 30
-14 13 0 -11 8 -25 15 -30 15 -6 1 1 8 17 16 15 8 27 17 27 19 0 7 -1 6 -32
-11z"/>
<path d="M5013 2330 c0 -25 2 -35 4 -22 2 12 2 32 0 45 -2 12 -4 2 -4 -23z"/>
<path d="M5188 2363 c12 -2 30 -2 40 0 9 3 -1 5 -23 4 -22 0 -30 -2 -17 -4z"/>
<path d="M5313 2330 c0 -25 2 -35 4 -22 2 12 2 32 0 45 -2 12 -4 2 -4 -23z"/>
<path d="M5345 2356 c12 -8 16 -20 12 -34 -3 -12 -1 -25 4 -28 10 -6 12 36 3
60 -3 9 -13 16 -22 16 -13 0 -13 -2 3 -14z"/>
<path d="M5188 2323 c12 -2 30 -2 40 0 9 3 -1 5 -23 4 -22 0 -30 -2 -17 -4z"/>
<path d="M3338 2470 c-5 -17 3 -90 11 -90 3 0 5 21 4 46 -1 46 -8 65 -15 44z"/>
<path d="M3663 2473 c-7 -2 -13 -9 -13 -14 0 -6 4 -8 9 -4 6 3 12 -14 14 -37
3 -41 4 -41 5 10 1 28 1 52 0 51 -2 0 -9 -3 -15 -6z"/>
<path d="M3223 2420 c0 -25 2 -35 4 -22 2 12 2 32 0 45 -2 12 -4 2 -4 -23z"/>
<path d="M3251 2416 l2 -41 6 35 c8 48 38 54 44 8 l4 -33 -1 35 c-1 31 -4 35
-28 36 -26 1 -28 -1 -27 -40z"/>
<path d="M3421 2415 c2 -33 3 -35 6 -10 2 17 11 35 20 42 13 10 13 12 -6 10
-18 -1 -21 -7 -20 -42z"/>
<path d="M3528 2453 c12 -2 30 -2 40 0 9 3 -1 5 -23 4 -22 0 -30 -2 -17 -4z"/>
<path d="M3528 2413 c12 -2 30 -2 40 0 9 3 -1 5 -23 4 -22 0 -30 -2 -17 -4z"/>
<path d="M3578 2296 c-22 -16 -23 -27 -4 -20 11 4 16 -5 19 -38 3 -38 4 -37 5
15 1 31 1 57 0 57 -2 0 -11 -7 -20 -14z"/>
<path d="M3353 2240 c0 -25 2 -35 4 -22 2 12 2 32 0 45 -2 12 -4 2 -4 -23z"/>
<path d="M3438 2273 c12 -2 30 -2 40 0 9 3 -1 5 -23 4 -22 0 -30 -2 -17 -4z"/>
<path d="M3438 2233 c12 -2 30 -2 40 0 9 3 -1 5 -23 4 -22 0 -30 -2 -17 -4z"/>
<path d="M1791 1796 l2 -41 6 35 c8 48 38 54 44 8 l4 -33 -1 35 c-1 31 -4 35
-28 36 -26 1 -28 -1 -27 -40z"/>
<path d="M1883 1833 c-19 -7 -16 -60 3 -67 25 -10 33 -7 44 14 19 36 -10 69
-47 53z m41 -18 c8 -21 -3 -45 -20 -45 -18 0 -28 24 -20 45 3 8 12 15 20 15 7
0 16 -7 20 -15z"/>
<path d="M1840 952 c0 -13 -7 -18 -21 -18 -12 1 -26 -7 -33 -16 -15 -25 4 -53
38 -54 25 -1 26 1 26 52 0 30 -2 54 -5 54 -3 0 -5 -8 -5 -18z m-6 -37 c8 -21
-3 -45 -20 -45 -8 0 -17 7 -20 15 -8 21 2 45 20 45 7 0 16 -7 20 -15z"/>
<path d="M1626 932 c-3 -6 2 -8 13 -5 10 3 22 0 25 -6 5 -7 -4 -11 -23 -11
-32 0 -41 -16 -19 -38 14 -14 44 -16 52 -3 3 4 -5 6 -18 4 -15 -3 -25 1 -29
11 -5 12 0 16 24 16 24 0 30 4 27 18 -4 19 -42 29 -52 14z"/>
<path d="M1701 896 l2 -41 6 35 c8 48 38 54 44 8 l4 -33 -1 35 c-1 31 -4 35
-28 36 -26 1 -28 -1 -27 -40z"/>
<path d="M5222 1018 c1 -41 1 -41 5 -8 3 19 10 38 16 42 8 5 6 8 -5 8 -15 0
-18 -8 -16 -42z"/>
<path d="M2381 2556 c-1 -5 4 -26 11 -48 10 -33 9 -41 -3 -50 -12 -8 -12 -9 0
-6 13 4 56 108 45 108 -3 0 -10 -14 -16 -32 l-11 -32 -13 34 c-7 19 -13 31
-13 26z"/>
<path d="M2466 2552 c-3 -6 2 -8 13 -5 10 3 22 0 25 -6 5 -7 -4 -11 -23 -11
-32 0 -41 -16 -19 -38 14 -14 44 -16 52 -3 3 4 -5 6 -18 4 -15 -3 -25 1 -29
11 -5 12 0 16 24 16 24 0 30 4 27 18 -4 19 -42 29 -52 14z"/>
<path d="M2547 2553 c-15 -14 -6 -31 18 -37 15 -4 23 -11 19 -17 -3 -6 -15 -9
-25 -6 -11 3 -17 1 -13 -4 9 -15 41 -10 48 6 4 10 -3 20 -19 27 -30 13 -33 33
-5 25 11 -3 18 -1 14 4 -6 11 -28 12 -37 2z"/>
<path d="M5291 1666 l2 -41 6 35 c8 48 38 54 44 8 l4 -33 -1 35 c-1 31 -4 35
-28 36 -26 1 -28 -1 -27 -40z"/>
<path d="M5383 1703 c-19 -7 -16 -60 3 -67 25 -10 33 -7 44 14 19 36 -10 69
-47 53z m41 -18 c8 -21 -3 -45 -20 -45 -8 0 -17 7 -20 15 -8 21 2 45 20 45 7
0 16 -7 20 -15z"/>
</g>
</svg>
