<?xml version="1.0" standalone="no"?>
<!DOCTYPE svg PUBLIC "-//W3C//DTD SVG 20010904//EN"
 "http://www.w3.org/TR/2001/REC-SVG-20010904/DTD/svg10.dtd">
<svg version="1.0" xmlns="http://www.w3.org/2000/svg"
 width="623.000000pt" height="672.000000pt" viewBox="0 0 623.000000 672.000000"
 preserveAspectRatio="xMidYMid meet">

<g transform="translate(0.000000,672.000000) scale(0.100000,-0.100000)"
fill="#000000" stroke="none">
<path d="M1228 6623 c29 -2 74 -2 100 0 26 2 2 3 -53 3 -55 0 -76 -1 -47 -3z"/>
<path d="M1133 6613 c9 -2 23 -2 30 0 6 3 -1 5 -18 5 -16 0 -22 -2 -12 -5z"/>
<path d="M1430 6605 c30 -8 60 -14 65 -14 20 2 -71 27 -95 27 -14 0 0 -6 30
-13z"/>
<path d="M1032 6593 c-64 -23 -46 -25 23 -3 33 10 51 19 40 19 -11 0 -39 -7
-63 -16z"/>
<path d="M1577 6555 c277 -137 283 -404 13 -550 -36 -19 -61 -35 -56 -35 4 0
35 14 68 32 128 68 204 179 196 286 -2 32 -13 75 -23 97 -37 77 -159 176 -245
199 -14 4 7 -9 47 -29z"/>
<path d="M933 6549 c-46 -29 -41 -36 5 -8 46 28 47 29 36 29 -5 0 -24 -10 -41
-21z"/>
<path d="M835 6476 c-84 -84 -112 -180 -80 -275 22 -67 105 -158 182 -198 71
-38 184 -73 227 -72 24 1 21 3 -16 9 -242 41 -414 198 -395 361 8 64 29 104
90 167 28 28 48 52 44 52 -4 0 -27 -20 -52 -44z"/>
<path d="M1228 6308 c-2 -7 -1 -26 3 -43 6 -28 7 -26 8 13 1 42 -3 53 -11 30z"/>
<path d="M1350 6312 c0 -7 -9 -12 -20 -12 -16 0 -20 -6 -19 -32 2 -31 2 -31 6
-5 5 34 33 36 33 2 0 -14 3 -25 8 -25 9 0 7 68 -2 77 -3 4 -6 1 -6 -5z"/>
<path d="M1175 6289 c-4 -6 1 -17 11 -25 18 -15 18 -15 1 -10 -11 3 -16 2 -12
-4 14 -22 34 -10 33 20 -1 30 -20 41 -33 19z"/>
<path d="M1273 6294 c18 -6 18 -6 0 -20 -15 -12 -15 -13 -1 -8 10 3 18 -1 21
-13 3 -10 5 -5 4 12 -2 22 -7 30 -22 32 -17 2 -17 1 -2 -3z"/>
<path d="M1410 5945 c-38 -9 -46 -13 -25 -13 17 0 48 5 70 13 50 16 27 16 -45
0z"/>
<path d="M1233 5923 l37 -4 0 -101 c0 -88 -2 -99 -16 -94 -12 5 -15 2 -9 -11
23 -57 41 -53 -244 -53 l-261 0 2 -272 3 -273 2 268 3 267 520 0 520 0 3 -267
2 -268 3 273 2 272 -260 0 c-143 0 -260 2 -260 5 0 4 7 20 16 37 15 28 15 30
0 25 -14 -6 -16 6 -16 93 l0 99 33 4 c17 2 -2 4 -43 4 -41 0 -58 -2 -37 -4z"/>
<path d="M3540 5315 l0 -265 265 0 266 0 -16 -30 c-19 -36 -19 -40 0 -40 13 0
15 -15 13 -92 l-3 -93 -174 -5 c-130 -4 -175 -8 -177 -18 -1 -7 0 -8 3 -2 3 7
152 10 438 10 l433 0 -85 -255 -85 -255 -434 0 c-408 0 -433 1 -428 18 5 14 4
15 -5 2 -6 -8 -11 -18 -11 -22 0 -5 118 -8 261 -8 286 0 267 4 243 -54 -6 -16
-4 -18 9 -13 15 6 17 -4 17 -91 l0 -97 -173 -173 c-95 -94 -179 -172 -187
-172 -9 0 -26 7 -38 16 -20 14 -22 14 -22 0 0 -14 -32 -16 -270 -16 l-270 0 0
130 0 130 -530 0 -530 0 0 -131 c0 -121 -1 -131 -17 -124 -39 16 -56 18 -49 7
5 -9 -41 -12 -181 -12 l-188 0 -170 170 c-93 94 -172 170 -175 170 -3 0 -84
-79 -180 -175 l-175 -175 178 -178 177 -177 0 -158 c0 -133 -2 -157 -15 -157
-18 0 -18 -2 -3 -35 15 -33 24 -32 43 5 14 27 14 30 0 30 -13 0 -15 24 -15
163 l0 162 173 173 172 172 184 0 c165 0 183 -2 177 -16 -6 -17 4 -16 47 1 16
7 17 -3 17 -124 l0 -131 530 0 529 0 3 133 3 132 268 3 c233 2 267 0 267 -13
0 -18 8 -18 40 0 25 14 28 11 203 -163 l177 -177 0 -183 c0 -165 -2 -184 -16
-178 -12 5 -15 2 -9 -11 4 -10 10 -26 12 -35 7 -25 18 -22 31 7 15 32 15 48 2
40 -7 -4 -10 59 -10 182 l0 188 172 172 173 173 -90 91 c-50 50 -127 127 -172
172 l-83 81 0 102 c0 91 2 103 16 97 15 -5 15 -3 0 25 -9 17 -16 33 -16 37 0
3 78 5 173 5 l172 0 84 253 c46 138 86 258 89 265 3 9 -52 12 -257 12 l-261 0
0 95 c0 79 3 95 16 95 14 0 14 2 0 22 -34 48 -33 48 244 48 l260 0 0 130 0
130 85 0 85 0 0 -825 0 -825 -141 0 c-91 0 -138 4 -134 10 8 13 -8 13 -40 -2
-32 -14 -32 -22 0 -36 35 -16 46 -15 39 3 -5 13 14 15 140 15 l146 0 -2 833
-3 832 -87 3 -88 3 0 129 0 130 -530 0 -530 0 0 -265z m1050 0 l0 -255 -520 0
-520 0 0 255 0 255 520 0 520 0 0 -255z m-3145 -1495 l170 -170 -173 -173
-172 -172 -172 172 -173 173 170 170 c93 93 172 170 175 170 3 0 82 -77 175
-170z m2800 0 l170 -170 -173 -173 -172 -172 -172 172 -173 173 170 170 c93
93 172 170 175 170 3 0 82 -77 175 -170z m-1145 -170 l0 -260 -520 0 -520 0 0
260 0 260 520 0 520 0 0 -260z"/>
<path d="M3948 5413 c7 -3 16 -2 19 1 4 3 -2 6 -13 5 -11 0 -14 -3 -6 -6z"/>
<path d="M3824 5391 c18 -7 18 -8 3 -14 -24 -9 -21 -37 3 -37 16 0 20 7 20 30
0 25 -4 30 -22 29 -21 0 -21 -1 -4 -8z m16 -31 c0 -5 -4 -10 -10 -10 -5 0 -10
5 -10 10 0 6 5 10 10 10 6 0 10 -4 10 -10z"/>
<path d="M3870 5370 c0 -16 2 -30 4 -30 2 0 6 14 8 30 3 17 1 30 -4 30 -4 0
-8 -13 -8 -30z"/>
<path d="M3901 5368 c2 -28 2 -29 6 -8 3 14 10 28 17 32 7 5 5 8 -6 8 -14 0
-18 -8 -17 -32z"/>
<path d="M3962 5370 c0 -19 2 -27 5 -17 2 9 2 25 0 35 -3 9 -5 1 -5 -18z"/>
<path d="M4141 5368 c2 -31 2 -31 6 -5 2 15 8 27 13 27 5 0 11 -12 13 -27 4
-26 4 -26 6 5 1 26 -3 32 -19 32 -16 0 -20 -6 -19 -32z"/>
<path d="M4191 5388 c-1 -23 9 -48 21 -48 7 0 7 4 0 13 -5 6 -12 21 -15 32 -3
15 -5 16 -6 3z"/>
<path d="M4232 5370 c0 -19 2 -27 5 -17 2 9 2 25 0 35 -3 9 -5 1 -5 -18z"/>
<path d="M4251 5365 c1 -28 1 -28 8 -6 9 35 29 37 34 4 l4 -28 2 28 c0 15 5
27 10 27 5 0 12 -12 14 -27 4 -27 4 -26 6 4 1 31 0 32 -39 30 -38 -1 -40 -3
-39 -32z"/>
<path d="M4063 5383 c9 -2 23 -2 30 0 6 3 -1 5 -18 5 -16 0 -22 -2 -12 -5z"/>
<path d="M4063 5363 c9 -2 23 -2 30 0 6 3 -1 5 -18 5 -16 0 -22 -2 -12 -5z"/>
<path d="M4002 5240 c0 -19 2 -27 5 -17 2 9 2 25 0 35 -3 9 -5 1 -5 -18z"/>
<path d="M4104 5256 c-8 -8 -7 -15 0 -22 8 -8 15 -7 22 0 8 8 7 15 0 22 -8 8
-15 7 -22 0z"/>
<path d="M4033 5243 c9 -2 23 -2 30 0 6 3 -1 5 -18 5 -16 0 -22 -2 -12 -5z"/>
<path d="M1305 3680 c-9 -28 3 -60 23 -60 16 1 15 2 0 11 -10 5 -18 19 -18 29
0 10 8 24 18 29 15 9 16 10 0 11 -9 0 -20 -9 -23 -20z"/>
<path d="M1366 3691 c-4 -5 3 -7 14 -4 21 5 28 -11 10 -22 -5 -3 -10 -11 -10
-18 0 -6 7 -1 16 11 8 12 12 27 9 32 -8 12 -32 13 -39 1z"/>
<path d="M1131 3648 c2 -31 2 -31 6 -5 2 15 8 27 13 27 5 0 11 -12 13 -27 4
-26 4 -26 6 5 1 26 -3 32 -19 32 -16 0 -20 -6 -19 -32z"/>
<path d="M1240 3670 c-9 -6 -10 -10 -3 -10 6 0 15 5 18 10 8 12 4 12 -15 0z"/>
<path d="M1342 3660 c0 -14 2 -19 5 -12 2 6 2 18 0 25 -3 6 -5 1 -5 -13z"/>
<path d="M1230 3646 c0 -2 7 -7 16 -10 8 -3 12 -2 9 4 -6 10 -25 14 -25 6z"/>
<path d="M4150 3696 c0 -2 9 -6 20 -9 11 -3 20 -1 20 4 0 5 -9 9 -20 9 -11 0
-20 -2 -20 -4z"/>
<path d="M3942 3650 c0 -19 2 -27 5 -17 2 9 2 25 0 35 -3 9 -5 1 -5 -18z"/>
<path d="M4091 3648 c2 -31 2 -31 6 -5 2 15 8 27 13 27 5 0 11 -12 13 -27 4
-26 4 -26 6 5 1 26 -3 32 -19 32 -16 0 -20 -6 -19 -32z"/>
<path d="M4005 3661 c-6 -11 13 -26 22 -17 4 3 0 6 -8 6 -11 0 -11 2 1 10 9 6
10 10 3 10 -6 0 -14 -4 -18 -9z"/>
<path d="M2498 3689 c-6 -17 3 -69 11 -69 7 0 6 69 -2 76 -3 3 -7 0 -9 -7z"/>
<path d="M2704 3687 c-9 -25 0 -62 16 -62 10 0 15 10 15 34 0 36 -21 54 -31
28z m26 -27 c0 -16 -4 -30 -10 -30 -5 0 -10 14 -10 30 0 17 5 30 10 30 6 0 10
-13 10 -30z"/>
<path d="M2422 3650 c0 -19 2 -27 5 -17 2 9 2 25 0 35 -3 9 -5 1 -5 -18z"/>
<path d="M2441 3648 c2 -31 2 -31 6 -5 2 15 8 27 13 27 5 0 11 -12 13 -27 4
-26 4 -26 6 5 1 26 -3 32 -19 32 -16 0 -20 -6 -19 -32z"/>
<path d="M2562 3650 c0 -19 2 -27 5 -17 2 9 2 25 0 35 -3 9 -5 1 -5 -18z"/>
<path d="M2623 3663 c9 -2 23 -2 30 0 6 3 -1 5 -18 5 -16 0 -22 -2 -12 -5z"/>
<path d="M2623 3643 c9 -2 23 -2 30 0 6 3 -1 5 -18 5 -16 0 -22 -2 -12 -5z"/>
<path d="M1258 5489 c-6 -17 3 -69 11 -69 7 0 6 69 -2 76 -3 3 -7 0 -9 -7z"/>
<path d="M1172 5450 c0 -19 2 -27 5 -17 2 9 2 25 0 35 -3 9 -5 1 -5 -18z"/>
<path d="M1201 5448 c2 -31 2 -31 6 -5 2 15 8 27 13 27 5 0 11 -12 13 -27 4
-26 4 -26 6 5 1 26 -3 32 -19 32 -16 0 -20 -6 -19 -32z"/>
<path d="M1311 5446 c1 -28 2 -29 8 -7 9 34 29 37 34 6 4 -24 4 -24 3 2 -1 22
-6 28 -23 29 -19 1 -23 -4 -22 -30z"/>
<path d="M1148 5369 c-6 -17 3 -69 11 -69 7 0 6 69 -2 76 -3 3 -7 0 -9 -7z"/>
<path d="M1360 5330 c0 -27 3 -50 8 -50 4 0 7 23 7 50 0 28 -3 50 -7 50 -5 0
-8 -22 -8 -50z"/>
<path d="M1455 5330 c0 -27 3 -50 8 -50 4 0 7 23 7 50 0 28 -3 50 -7 50 -5 0
-8 -22 -8 -50z"/>
<path d="M1072 5330 c0 -19 2 -27 5 -17 2 9 2 25 0 35 -3 9 -5 1 -5 -18z"/>
<path d="M1091 5328 c2 -31 2 -31 6 -5 2 15 8 27 13 27 5 0 11 -12 13 -27 4
-26 4 -26 6 5 1 26 -3 32 -19 32 -16 0 -20 -6 -19 -32z"/>
<path d="M1224 5351 c18 -7 18 -8 3 -14 -24 -9 -21 -37 3 -37 16 0 20 7 20 30
0 25 -4 30 -22 29 -21 0 -21 -1 -4 -8z m16 -31 c0 -5 -4 -10 -10 -10 -5 0 -10
5 -10 10 0 6 5 10 10 10 6 0 10 -4 10 -10z"/>
<path d="M1270 5330 c0 -16 2 -30 4 -30 2 0 6 14 8 30 3 17 1 30 -4 30 -4 0
-8 -13 -8 -30z"/>
<path d="M1301 5328 c2 -28 2 -29 6 -8 3 14 10 28 17 32 7 5 5 8 -6 8 -14 0
-18 -8 -17 -32z"/>
<path d="M1391 5326 c1 -28 2 -29 8 -7 9 34 29 37 34 6 4 -24 4 -24 3 2 -1 22
-6 28 -23 29 -19 1 -23 -4 -22 -30z"/>
<path d="M1268 4995 c3 -117 1 -135 -12 -135 -20 0 -20 -4 -1 -40 l15 -30
-177 -2 c-133 -2 -177 -6 -179 -16 -1 -7 0 -8 3 -2 3 7 152 10 438 10 l433 0
-85 -255 -85 -255 -434 0 c-408 0 -433 1 -428 18 5 14 4 15 -5 2 -6 -8 -11
-18 -11 -22 0 -5 119 -8 265 -8 l265 0 0 -96 c0 -81 -2 -95 -15 -90 -8 3 -15
1 -15 -4 0 -15 23 -60 30 -60 8 0 30 46 30 61 0 6 -4 7 -10 4 -6 -4 -10 28
-10 89 l0 96 173 0 172 0 84 253 c46 138 86 258 89 265 3 9 -52 12 -257 12
-278 0 -279 0 -245 48 14 20 14 22 0 22 -14 0 -16 19 -16 135 0 74 -3 135 -7
135 -5 0 -7 -61 -5 -135z"/>
<path d="M1241 4518 c1 -29 2 -30 8 -9 9 34 29 37 34 6 4 -24 4 -24 3 2 -1 21
-7 29 -23 31 -20 3 -23 -1 -22 -30z"/>
<path d="M3971 4518 c2 -30 2 -31 6 -5 5 34 30 36 36 2 4 -23 4 -23 3 2 -1 21
-7 29 -23 31 -20 3 -23 -1 -22 -30z"/>
<path d="M4031 4523 c-1 -27 3 -33 19 -33 16 0 20 6 19 33 -2 30 -2 30 -6 5
-2 -16 -8 -28 -13 -28 -5 0 -11 12 -13 28 -4 25 -4 25 -6 -5z"/>
<path d="M4092 4520 c0 -19 2 -27 5 -17 2 9 2 25 0 35 -3 9 -5 1 -5 -18z"/>
<path d="M4119 4516 c4 -30 5 -30 11 -6 4 14 12 24 18 23 7 -2 12 1 12 6 0 5
-10 9 -23 9 -20 0 -23 -4 -18 -32z"/>
<path d="M4201 4164 c0 -11 3 -14 6 -6 3 7 2 16 -1 19 -3 4 -6 -2 -5 -13z"/>
<path d="M4224 4166 c-13 -33 23 -65 41 -36 3 5 0 7 -8 4 -8 -3 -18 -1 -22 5
-3 7 3 11 15 11 13 0 20 5 18 13 -7 18 -37 21 -44 3z m33 -2 c-3 -3 -12 -4
-19 -1 -8 3 -5 6 6 6 11 1 17 -2 13 -5z"/>
<path d="M4285 4169 c-4 -6 1 -17 11 -25 18 -15 18 -15 1 -10 -11 3 -16 2 -12
-4 14 -22 34 -10 33 20 -1 30 -20 41 -33 19z"/>
<path d="M4184 4142 c4 -7 2 -19 -4 -27 -7 -9 -8 -15 -2 -15 16 0 24 32 11 44
-9 8 -10 8 -5 -2z"/>
<path d="M1751 3814 c0 -11 3 -14 6 -6 3 7 2 16 -1 19 -3 4 -6 -2 -5 -13z"/>
<path d="M1774 3816 c-13 -33 23 -65 41 -36 3 5 0 7 -8 4 -8 -3 -18 -1 -22 5
-3 7 3 11 15 11 13 0 20 5 18 13 -7 18 -37 21 -44 3z m33 -2 c-3 -3 -12 -4
-19 -1 -8 3 -5 6 6 6 11 1 17 -2 13 -5z"/>
<path d="M1835 3819 c-4 -6 1 -17 11 -25 18 -15 18 -15 1 -10 -11 3 -16 2 -12
-4 14 -22 34 -10 33 20 -1 30 -20 41 -33 19z"/>
<path d="M1734 3792 c4 -7 2 -19 -4 -27 -7 -9 -8 -15 -2 -15 16 0 24 32 11 44
-9 8 -10 8 -5 -2z"/>
<path d="M1391 3186 c1 -28 2 -29 8 -7 9 34 29 37 34 6 4 -24 4 -24 3 2 -1 22
-6 28 -23 29 -19 1 -23 -4 -22 -30z"/>
<path d="M1457 3205 c-9 -22 3 -46 22 -43 10 2 16 13 16 28 0 28 -29 40 -38
15z m33 -15 c0 -21 -15 -27 -25 -10 -7 12 2 30 16 30 5 0 9 -9 9 -20z"/>
<path d="M4111 3188 c2 -31 2 -31 6 -5 2 15 8 27 13 27 5 0 11 -12 13 -27 4
-26 4 -26 6 5 1 26 -3 32 -19 32 -16 0 -20 -6 -19 -32z"/>
<path d="M4177 3213 c-11 -10 -8 -41 4 -49 6 -3 16 -1 22 5 9 9 8 11 -5 6 -14
-6 -18 -2 -18 15 0 16 4 20 16 16 8 -3 12 -2 9 4 -7 12 -19 13 -28 3z"/>
<path d="M1188 2903 c12 -2 32 -2 45 0 12 2 2 4 -23 4 -25 0 -35 -2 -22 -4z"/>
<path d="M1291 2906 c2 -2 36 -6 74 -9 42 -3 58 -2 40 3 -30 8 -122 13 -114 6z"/>
<path d="M1123 2893 c9 -2 23 -2 30 0 6 3 -1 5 -18 5 -16 0 -22 -2 -12 -5z"/>
<path d="M1055 2880 c-13 -5 -14 -9 -5 -9 8 0 24 4 35 9 13 5 14 9 5 9 -8 0
-24 -4 -35 -9z"/>
<path d="M1448 2883 c7 -3 16 -2 19 1 4 3 -2 6 -13 5 -11 0 -14 -3 -6 -6z"/>
<path d="M1495 2870 c27 -12 43 -12 25 0 -8 5 -22 9 -30 9 -10 0 -8 -3 5 -9z"/>
<path d="M973 2850 c-24 -10 -43 -21 -43 -24 0 -4 90 32 99 40 11 10 -18 2
-56 -16z"/>
<path d="M1570 2840 c19 -11 40 -19 45 -19 6 0 -6 8 -25 19 -19 11 -39 19 -45
19 -5 0 6 -8 25 -19z"/>
<path d="M3542 2563 l-2 -273 265 0 265 0 0 -161 c0 -139 -2 -160 -15 -155
-18 7 -19 -4 -3 -39 14 -32 22 -32 36 0 15 32 15 48 2 40 -7 -4 -10 50 -10
154 l0 161 260 0 260 0 -2 273 -3 272 -2 -267 -3 -268 -520 0 -520 0 -3 268
-2 267 -3 -272z"/>
<path d="M827 2751 c-43 -48 -72 -103 -80 -151 -6 -33 -6 -33 7 6 21 63 43
101 82 140 20 19 34 37 31 40 -2 2 -20 -13 -40 -35z"/>
<path d="M1720 2733 c23 -29 50 -77 60 -110 11 -32 19 -51 19 -42 2 38 -34
113 -76 157 l-45 47 42 -52z"/>
<path d="M4129 2653 c-8 -10 -9 -14 -2 -10 8 5 13 -3 16 -25 3 -29 4 -28 5 10
2 47 0 49 -19 25z"/>
<path d="M3972 2620 c0 -19 2 -27 5 -17 2 9 2 25 0 35 -3 9 -5 1 -5 -18z"/>
<path d="M4043 2633 c9 -2 23 -2 30 0 6 3 -1 5 -18 5 -16 0 -22 -2 -12 -5z"/>
<path d="M4043 2613 c9 -2 23 -2 30 0 6 3 -1 5 -18 5 -16 0 -22 -2 -12 -5z"/>
<path d="M1343 2570 c0 -25 2 -35 4 -22 2 12 2 32 0 45 -2 12 -4 2 -4 -23z"/>
<path d="M1190 2576 c0 -10 9 -16 21 -16 24 0 21 23 -4 28 -10 2 -17 -3 -17
-12z"/>
<path d="M1241 2556 c1 -28 2 -29 8 -7 9 34 29 37 34 6 4 -24 4 -24 3 2 -1 22
-6 28 -23 29 -19 1 -23 -4 -22 -30z"/>
<path d="M1304 2575 c-8 -20 2 -45 18 -44 10 0 10 2 1 6 -7 2 -13 13 -13 23 0
10 6 21 13 23 9 4 9 6 -1 6 -7 1 -15 -6 -18 -14z"/>
<path d="M1200 2536 c7 -7 13 -7 20 0 6 6 3 10 -10 10 -13 0 -16 -4 -10 -10z"/>
<path d="M1791 2525 c-3 -38 -42 -110 -84 -153 -23 -24 -35 -40 -26 -37 41 16
125 156 116 193 -4 14 -5 13 -6 -3z"/>
<path d="M3818 2529 c-6 -17 3 -69 11 -69 7 0 6 69 -2 76 -3 3 -7 0 -9 -7z"/>
<path d="M4290 2530 c0 -5 -7 -10 -15 -10 -11 0 -15 -10 -14 -32 2 -31 2 -31
6 -5 6 39 23 33 23 -8 0 -19 3 -35 8 -35 4 0 7 23 7 50 0 28 -3 50 -7 50 -5 0
-8 -4 -8 -10z"/>
<path d="M4325 2520 c-9 -28 3 -60 23 -60 16 1 15 2 0 11 -10 5 -18 19 -18 29
0 10 8 24 18 29 15 9 16 10 0 11 -9 0 -20 -9 -23 -20z"/>
<path d="M4385 2490 c0 -27 3 -50 8 -50 4 0 7 23 7 50 0 28 -3 50 -7 50 -5 0
-8 -22 -8 -50z"/>
<path d="M3742 2490 c0 -19 2 -27 5 -17 2 9 2 25 0 35 -3 9 -5 1 -5 -18z"/>
<path d="M3761 2488 c2 -31 2 -31 6 -5 2 15 8 27 13 27 5 0 11 -12 13 -27 4
-26 4 -26 6 5 1 26 -3 32 -19 32 -16 0 -20 -6 -19 -32z"/>
<path d="M3881 2488 c2 -31 2 -31 6 -5 2 15 8 27 13 27 5 0 11 -12 13 -27 4
-26 4 -26 6 5 1 26 -3 32 -19 32 -16 0 -20 -6 -19 -32z"/>
<path d="M3938 2490 c2 -16 6 -30 8 -30 2 0 4 14 4 30 0 17 -4 30 -8 30 -5 0
-7 -13 -4 -30z"/>
<path d="M3962 2490 c0 -19 2 -27 5 -17 2 9 2 25 0 35 -3 9 -5 1 -5 -18z"/>
<path d="M3991 2488 c2 -31 2 -31 6 -5 2 15 8 27 13 27 5 0 11 -12 13 -27 4
-26 4 -26 6 5 1 26 -3 32 -19 32 -16 0 -20 -6 -19 -32z"/>
<path d="M4184 2511 c18 -7 18 -8 3 -14 -24 -9 -21 -37 3 -37 16 0 20 7 20 30
0 25 -4 30 -22 29 -21 0 -21 -1 -4 -8z m16 -31 c0 -5 -4 -10 -10 -10 -5 0 -10
5 -10 10 0 6 5 10 10 10 6 0 10 -4 10 -10z"/>
<path d="M4221 2486 c1 -21 3 -25 6 -11 3 11 9 25 14 31 5 7 3 11 -6 11 -10 0
-15 -10 -14 -31z"/>
<path d="M4362 2500 c0 -14 2 -19 5 -12 2 6 2 18 0 25 -3 6 -5 1 -5 -13z"/>
<path d="M751 2501 c-2 -28 39 -97 81 -136 l42 -40 -46 53 c-26 29 -53 72 -61
95 -9 23 -16 36 -16 28z"/>
<path d="M4093 2503 c9 -2 23 -2 30 0 6 3 -1 5 -18 5 -16 0 -22 -2 -12 -5z"/>
<path d="M4093 2483 c9 -2 23 -2 30 0 6 3 -1 5 -18 5 -16 0 -22 -2 -12 -5z"/>
<path d="M1595 2288 c-11 -7 -47 -22 -80 -35 -33 -12 -55 -22 -48 -22 19 -1
117 37 139 54 23 17 17 19 -11 3z"/>
<path d="M950 2275 c14 -8 30 -14 35 -14 6 0 -1 6 -15 14 -14 8 -29 14 -35 14
-5 0 1 -6 15 -14z"/>
<path d="M1025 2245 c17 -8 37 -14 45 -14 8 0 -1 7 -20 14 -46 18 -64 17 -25
0z"/>
<path d="M1110 2220 c14 -4 40 -8 58 -9 36 -1 37 -3 21 -33 -10 -18 -9 -20 5
-15 15 6 16 -22 16 -303 l0 -310 505 0 c407 0 505 -3 505 -13 0 -7 -18 -66
-39 -130 -28 -83 -36 -119 -28 -123 7 -2 205 -3 441 -2 338 2 430 6 432 16 1
7 0 8 -3 2 -8 -16 -863 -14 -863 2 0 7 37 124 82 260 l83 248 433 0 433 0 -6
-22 c-5 -18 -4 -20 4 -8 28 40 30 40 -431 38 l-441 -3 -42 -125 -42 -125 -506
-3 -507 -2 0 305 c0 276 1 304 16 298 14 -5 15 -3 5 15 -9 17 -9 22 1 22 9 1
8 3 -2 9 -8 5 -46 11 -85 14 -41 3 -60 2 -45 -3z"/>
<path d="M1375 2220 l-40 -7 35 -1 c19 0 46 4 60 8 32 10 2 10 -55 0z"/>
<path d="M1298 2203 c6 -2 18 -2 25 0 6 3 1 5 -13 5 -14 0 -19 -2 -12 -5z"/>
<path d="M3895 1730 l-170 -170 -272 0 c-238 0 -273 2 -273 15 0 13 -3 13 -26
-1 -20 -14 -27 -15 -33 -5 -6 9 -10 6 -14 -10 -4 -13 -4 -25 -2 -28 3 -2 5 1
5 8 0 8 9 7 30 -4 36 -19 40 -19 40 0 0 13 36 15 267 15 l268 0 177 -177 178
-178 0 -92 c0 -76 -3 -93 -15 -93 -18 0 -19 -5 -4 -32 10 -19 -6 -38 -162
-194 l-174 -174 178 -178 177 -178 0 -87 0 -87 1010 0 1010 0 -2 738 -3 737
-52 3 c-39 2 -53 7 -53 18 0 13 -3 13 -22 0 -45 -32 -48 -25 -48 114 l0 130
-530 0 -530 0 0 -130 0 -130 -181 0 c-117 0 -178 3 -174 10 3 6 2 10 -4 10
-15 0 -61 -22 -61 -30 0 -7 45 -30 60 -30 5 0 7 7 4 15 -5 13 18 15 175 15
l181 0 0 -135 0 -135 265 0 266 0 -16 -30 c-19 -36 -19 -41 0 -34 13 5 15 -18
15 -170 l0 -176 -265 0 -265 0 0 -130 0 -131 -30 16 c-36 19 -41 19 -34 0 5
-13 -18 -15 -178 -15 l-183 0 -174 174 -174 174 17 26 c14 23 14 26 1 26 -12
0 -15 17 -15 97 l0 98 172 172 173 173 -90 91 c-139 140 -256 254 -263 257 -4
1 -84 -74 -177 -168z m350 -10 l170 -170 -173 -173 -172 -172 -172 172 -173
173 170 170 c93 93 172 170 175 170 3 0 82 -77 175 -170z m1655 -170 l0 -260
-520 0 -520 0 0 260 0 260 520 0 520 0 0 -260z m180 -730 l0 -730 -1000 0
-1000 0 0 82 0 83 172 172 173 173 182 0 c157 0 183 -2 183 -15 0 -14 3 -14
30 0 l30 16 0 -131 0 -130 530 0 530 0 0 265 0 265 -260 0 -260 0 0 175 c0
150 2 175 15 175 14 0 14 3 0 30 l-16 30 261 0 260 0 0 131 c0 142 -2 137 53
114 12 -5 17 -2 17 9 0 13 11 16 50 16 l50 0 0 -730z m-1837 -382 l-173 -173
-170 170 -170 170 172 172 173 173 170 -170 170 -170 -172 -172z m1657 167 l0
-255 -520 0 -520 0 0 255 0 255 520 0 520 0 0 -255z"/>
<path d="M4163 1593 c13 -3 17 -11 14 -24 -3 -10 -1 -17 4 -13 5 3 9 14 9 25
0 13 -6 19 -22 18 -19 -1 -20 -2 -5 -6z"/>
<path d="M3942 1550 c0 -19 2 -27 5 -17 2 9 2 25 0 35 -3 9 -5 1 -5 -18z"/>
<path d="M4091 1548 c2 -31 2 -31 6 -5 2 15 8 27 13 27 5 0 11 -12 13 -27 4
-26 4 -26 6 5 1 26 -3 32 -19 32 -16 0 -20 -6 -19 -32z"/>
<path d="M4005 1561 c-6 -11 13 -26 22 -17 4 3 0 6 -8 6 -11 0 -11 2 1 10 9 6
10 10 3 10 -6 0 -14 -4 -18 -9z"/>
<path d="M5312 1550 c0 -19 2 -27 5 -17 2 9 2 25 0 35 -3 9 -5 1 -5 -18z"/>
<path d="M5354 1566 c-8 -8 -7 -15 0 -22 8 -8 15 -7 22 0 8 8 7 15 0 22 -8 8
-15 7 -22 0z"/>
<path d="M5414 1566 c-8 -8 -7 -15 0 -22 8 -8 15 -7 22 0 8 8 7 15 0 22 -8 8
-15 7 -22 0z"/>
<path d="M4191 206 c1 -28 2 -29 8 -7 9 34 29 37 34 6 4 -24 4 -24 3 2 -1 22
-6 28 -23 29 -19 1 -23 -4 -22 -30z"/>
<path d="M4257 225 c-9 -22 3 -46 22 -43 10 2 16 13 16 28 0 28 -29 40 -38 15z
m33 -15 c0 -11 -4 -20 -9 -20 -14 0 -23 18 -16 30 10 17 25 11 25 -10z"/>
<path d="M3918 643 c7 -3 16 -2 19 1 4 3 -2 6 -13 5 -11 0 -14 -3 -6 -6z"/>
<path d="M4280 646 c0 -2 9 -6 20 -9 11 -3 20 -1 20 4 0 5 -9 9 -20 9 -11 0
-20 -2 -20 -4z"/>
<path d="M3803 624 c18 -6 18 -6 0 -20 -15 -12 -15 -13 -1 -8 10 3 18 -1 21
-13 3 -10 5 -5 4 12 -2 22 -7 30 -22 32 -17 2 -17 1 -2 -3z"/>
<path d="M3841 598 c2 -28 2 -29 6 -8 3 14 10 28 17 32 7 5 5 8 -6 8 -14 0
-18 -8 -17 -32z"/>
<path d="M3912 600 c0 -19 2 -27 5 -17 2 9 2 25 0 35 -3 9 -5 1 -5 -18z"/>
<path d="M4082 600 c0 -19 2 -27 5 -17 2 9 2 25 0 35 -3 9 -5 1 -5 -18z"/>
<path d="M4109 596 c4 -30 5 -30 11 -6 4 14 12 24 18 23 7 -2 12 1 12 6 0 5
-10 9 -23 9 -20 0 -23 -4 -18 -32z"/>
<path d="M4172 600 c0 -19 2 -27 5 -17 2 9 2 25 0 35 -3 9 -5 1 -5 -18z"/>
<path d="M4191 598 c2 -31 2 -31 6 -5 2 15 8 27 13 27 5 0 11 -12 13 -27 4
-26 4 -26 6 5 1 26 -3 32 -19 32 -16 0 -20 -6 -19 -32z"/>
<path d="M3995 611 c-6 -11 13 -26 22 -17 4 3 0 6 -8 6 -11 0 -11 2 1 10 9 6
10 10 3 10 -6 0 -14 -4 -18 -9z"/>
<path d="M5540 600 c0 -27 3 -50 8 -50 4 0 7 23 7 50 0 28 -3 50 -7 50 -5 0
-8 -22 -8 -50z"/>
<path d="M5595 600 c0 -27 3 -50 8 -50 4 0 7 23 7 50 0 28 -3 50 -7 50 -5 0
-8 -22 -8 -50z"/>
<path d="M5121 596 c1 -29 2 -29 8 -7 9 35 29 37 34 4 l4 -28 2 28 c1 34 18
36 24 2 4 -23 4 -23 3 2 -1 25 -5 28 -38 29 -36 1 -38 -1 -37 -30z"/>
<path d="M5212 600 c0 -19 2 -27 5 -17 2 9 2 25 0 35 -3 9 -5 1 -5 -18z"/>
<path d="M5231 596 c1 -28 2 -29 8 -7 9 34 29 37 34 6 4 -24 4 -24 3 2 -1 22
-6 28 -23 29 -19 1 -23 -4 -22 -30z"/>
<path d="M5435 621 c19 -8 19 -8 -3 -15 -28 -9 -24 -31 7 -32 18 -1 22 3 19
25 -2 17 -10 27 -23 28 l-20 3 20 -9z m10 -31 c-3 -5 -11 -10 -16 -10 -6 0 -7
5 -4 10 3 6 11 10 16 10 6 0 7 -4 4 -10z"/>
<path d="M5471 598 c2 -31 2 -31 6 -5 2 15 9 27 14 27 5 0 10 -12 10 -27 1
-21 2 -23 6 -8 3 11 9 25 14 30 5 7 -3 12 -22 13 -27 2 -29 0 -28 -30z"/>
<path d="M5572 600 c0 -19 2 -27 5 -17 2 9 2 25 0 35 -3 9 -5 1 -5 -18z"/>
<path d="M5333 613 c9 -2 23 -2 30 0 6 3 -1 5 -18 5 -16 0 -22 -2 -12 -5z"/>
<path d="M5333 593 c9 -2 23 -2 30 0 6 3 -1 5 -18 5 -16 0 -22 -2 -12 -5z"/>
<path d="M3171 1753 c-1 -6 -4 -20 -7 -30 -5 -17 -5 -17 6 0 6 10 9 23 6 30
-3 9 -5 9 -5 0z"/>
<path d="M3321 1608 c2 -31 2 -31 6 -5 2 15 8 27 13 27 5 0 11 -12 13 -27 4
-26 4 -26 6 5 1 26 -3 32 -19 32 -16 0 -20 -6 -19 -32z"/>
<path d="M3384 1625 c-8 -21 2 -45 20 -45 17 0 28 24 20 45 -4 8 -13 15 -20
15 -8 0 -17 -7 -20 -15z m31 -15 c0 -7 -6 -15 -12 -17 -8 -3 -13 4 -13 17 0
13 5 20 13 18 6 -3 12 -11 12 -18z"/>
<path d="M2591 1547 c2 -30 2 -30 6 -4 2 15 9 27 14 27 5 0 9 -12 10 -27 l1
-28 7 25 c4 14 13 24 19 23 7 -2 12 1 12 5 0 5 -16 9 -35 10 -33 1 -35 0 -34
-31z"/>
<path d="M2682 1550 c0 -19 2 -27 5 -17 2 9 2 25 0 35 -3 9 -5 1 -5 -18z"/>
<path d="M2701 1548 c2 -31 2 -31 6 -5 2 15 8 27 13 27 5 0 11 -12 13 -27 4
-26 4 -26 6 5 1 26 -3 32 -19 32 -16 0 -20 -6 -19 -32z"/>
<path d="M4200 1107 c0 -9 -5 -17 -11 -17 -5 0 -7 -5 -4 -10 4 -6 1 -17 -5
-25 -8 -10 -9 -15 -2 -15 12 0 37 68 28 77 -3 4 -6 -1 -6 -10z"/>
<path d="M4224 1106 c-13 -33 23 -65 41 -36 3 5 0 7 -8 4 -8 -3 -18 -1 -22 5
-3 7 3 11 15 11 13 0 20 5 18 13 -7 18 -37 21 -44 3z m33 -2 c-3 -3 -12 -4
-19 -1 -8 3 -5 6 6 6 11 1 17 -2 13 -5z"/>
<path d="M4285 1109 c-4 -6 1 -17 11 -25 18 -15 18 -15 1 -10 -11 3 -16 2 -12
-4 14 -22 34 -10 33 20 -1 30 -20 41 -33 19z"/>
<path d="M4664 756 c-12 -33 23 -65 40 -37 4 5 -3 7 -14 4 -11 -3 -20 0 -20 6
0 6 9 11 21 11 12 0 19 5 17 13 -7 18 -37 21 -44 3z m33 -2 c-3 -3 -12 -4 -19
-1 -8 3 -5 6 6 6 11 1 17 -2 13 -5z"/>
<path d="M4720 756 c0 -8 8 -17 18 -21 16 -7 15 -8 -3 -15 -16 -7 -17 -9 -3
-9 26 -1 32 19 12 35 -18 15 -18 15 -1 10 11 -3 16 -2 12 4 -9 15 -35 12 -35
-4z"/>
<path d="M4623 723 c-3 -10 -8 -22 -10 -28 -3 -5 3 -1 11 9 16 20 21 36 11 36
-3 0 -8 -8 -12 -17z"/>
</g>
</svg>
